<svg width="400" height="400" viewBox="0 0 400 400" fill="none" xmlns="http://www.w3.org/2000/svg">
	<g clip-path="url(#clip0_1073_51)">
		<path class="medium" d="M25 265V375H157.5L139 350H50V265H25Z" fill="#333333" />
		<path class="medium" d="M365 25V50H340H164V25H365Z" fill="#333333" />
		<path class="light" d="M0.482422 255V6.99999H60.4824L73.9824 52.5C81.6491 32.5 92.1491 18.5 105.482 10.5C118.816 2.49999 134.982 -1.00002 153.982 -3.01003e-05V76C149.982 75.3333 146.482 75 143.482 75C140.482 74.6667 137.149 74.5 133.482 74.5C115.149 74.5 100.982 78.8333 90.9824 87.5C81.3158 96.1667 76.4824 110.333 76.4824 130V255H0.482422Z" fill="#FDFDFD" />
		<path class="dark" d="M239.574 400C218.241 400 199.241 394.667 182.574 384C166.241 373.333 153.408 358.167 144.074 338.5C134.741 318.5 130.074 295 130.074 268C130.074 241 134.741 218 144.074 199C153.408 179.667 166.241 164.833 182.574 154.5C199.241 144.167 218.241 139 239.574 139C253.241 139 267.241 142.5 281.574 149.5C295.908 156.167 307.074 166.333 315.074 180V60H391.074V297C391.074 309.333 391.574 324 392.574 341C393.908 358 396.241 375.667 399.574 394H327.074L317.074 360.5C306.741 374.833 294.574 385 280.574 391C266.908 397 253.241 400 239.574 400ZM264.074 341C278.741 341 291.408 335.5 302.074 324.5C313.074 313.5 318.574 295.167 318.574 269.5C318.574 244.167 313.074 226 302.074 215C291.408 203.667 278.741 198 264.074 198C249.074 198 236.074 204 225.074 216C214.408 228 209.074 245.333 209.074 268C209.074 291 214.408 309 225.074 322C236.074 334.667 249.074 341 264.074 341Z" fill="#4F4F4F" />
	</g>
	<defs>
		<clipPath id="clip0_1073_51">
			<rect class="light" width="400" height="400" fill="#FDFDFD" />
		</clipPath>
	</defs>
	<style>
		.light { fill: #FDFDFD; }
		.medium { fill: #333333; }
		.dark { fill: #2f8ded; }
		@media (prefers-color-scheme: light) {
			.light { fill: #030303; }
			.medium { fill: #4F4F4F; }
			.dark { fill: #2f8ded; }
		}
	</style>
</svg>
