<?xml version="1.0" standalone="no"?>
<!DOCTYPE svg PUBLIC "-//W3C//DTD SVG 20010904//EN" "http://www.w3.org/TR/2001/REC-SVG-20010904/DTD/svg10.dtd">
<svg version="1.0" xmlns="http://www.w3.org/2000/svg" width="700.000000pt" height="700.000000pt" viewBox="0 0 700.000000 700.000000" preserveAspectRatio="xMidYMid meet">
	<g transform="translate(0.000000,700.000000) scale(0.100000,-0.100000)" fill="#000000" stroke="none">
		<path d="M2330 6984 c-201 -31 -407 -111 -548 -211 -181 -129 -366 -383 -472 -651 -7 -18 -15 -31 -17 -29 -3 4 -48 150 -108 357 -26 90 -73 247 -100 336 l-27 91 -524 0 -524 0 2 -2170 3 -2171 640 2 c352 0 650 1 662 1 l21 1 2 1153 c1 633 3 1170 5 1192 36 355 165 570 420 697 52 26 156 64 196 72 13 2 35 7 49 10 125 29 319 38 525 23 55 -4 113 -9 130 -10 l29 -2 1 663 0 663 -145 -2 c-80 -2 -179 -8 -220 -15z" />
		<path d="M2880 6562 c-6 -2 -10 -85 -10 -220 l0 -217 1753 1 c963 1 1755 2 1759 3 11 2 7 420 -5 428 -10 6 -3477 11 -3497 5z" />
		<path d="M5515 4905 c0 -575 -2 -1045 -5 -1044 -3 0 -25 32 -50 71 -51 80 -217 254 -300 315 -170 123 -424 234 -660 287 -190 43 -483 41 -706 -4 -400 -81 -765 -295 -1003 -590 -20 -25 -38 -47 -41 -50 -17 -16 -107 -151 -148 -222 -136 -236 -237 -516 -276 -763 -37 -239 -49 -377 -49 -580 0 -112 12 -386 18 -395 2 -3 6 -39 10 -80 4 -41 8 -78 11 -81 2 -3 6 -25 9 -48 10 -83 57 -268 100 -399 176 -528 521 -939 965 -1149 143 -68 336 -127 487 -149 26 -3 57 -9 68 -11 40 -9 381 -11 435 -2 30 5 71 11 90 14 76 12 98 17 180 40 76 22 107 32 225 77 70 26 219 109 293 162 102 74 233 199 316 303 67 85 71 86 82 26 1 -7 11 -41 22 -75 11 -35 26 -83 33 -108 15 -53 14 -51 21 -70 3 -8 20 -67 39 -130 18 -63 36 -122 40 -130 7 -13 88 -15 638 -15 352 0 631 4 631 9 0 4 -11 76 -25 158 -26 152 -44 274 -50 338 -2 19 -6 55 -9 80 -12 83 -15 115 -22 180 -10 98 -11 123 -19 270 -4 74 -9 162 -12 195 -2 33 -5 1084 -7 2335 l-2 2275 -665 3 -665 2 1 -1045z m-700 -1391 c283 -67 536 -281 648 -549 91 -219 128 -531 104 -885 -33 -479 -211 -788 -550 -955 -184 -90 -377 -113 -590 -70 -141 29 -304 124 -431 251 -176 176 -291 444 -324 754 -15 139 -6 517 13 590 2 8 7 29 10 45 78 448 422 796 820 831 39 4 71 8 73 9 9 8 167 -7 227 -21z" />
		<path d="M452 2359 c-16 -6 -17 -73 -16 -959 0 -664 4 -954 11 -958 13 -8 2290 -8 2298 0 3 3 -14 30 -37 61 -24 31 -74 100 -113 153 -38 53 -75 101 -80 108 -6 6 -26 32 -43 59 -18 26 -36 47 -40 48 -4 1 -356 2 -782 3 l-775 1 0 743 c0 488 -3 742 -10 743 -48 4 -400 3 -413 -2z" />
	</g>
</svg>
