<?xml version="1.0" encoding="utf-8"?>
<!-- Generator: Adobe Illustrator 28.0.0, SVG Export Plug-In . SVG Version: 6.00 Build 0)  -->
<svg version="1.1" xmlns="http://www.w3.org/2000/svg" xmlns:xlink="http://www.w3.org/1999/xlink" x="0px" y="0px"
	 viewBox="0 0 2800 1200" style="enable-background:new 0 0 2800 1200;" xml:space="preserve">
<style type="text/css">
	.st0{clip-path:url(#SVGID_00000023987210017200416680000010522360188764286855_);}
	.st1{fill:url(#path3462_00000087383421370285233010000004270927604421979021_);}
	.st2{clip-path:url(#SVGID_00000155835784931377219730000005405530266575912345_);}
	.st3{fill:#777BB3;}
	.st4{clip-path:url(#SVGID_00000120557984955385749450000000264216910079837576_);}
	.st5{fill:#FFFFFF;}
	.st6{fill:#A179DC;}
	.st7{fill:#280068;}
	.st8{fill:#390091;}
	.st9{fill:#00618A;}
	.st10{fill:#E48E00;}
	.st11{fill-rule:evenodd;clip-rule:evenodd;fill:#00618A;}
	.st12{fill-rule:evenodd;clip-rule:evenodd;fill:#E48E00;}
	.st13{fill:#10AA50;}
	.st14{fill:#B8C4C2;}
	.st15{fill:#12924F;}
	.st16{fill:#4E7896;}
	.st17{fill:#F58219;}
	.st18{fill:#00599C;}
	.st19{fill:#004482;}
	.st20{fill:#659AD2;}
	.st21{fill-rule:evenodd;clip-rule:evenodd;fill:#004482;}
	.st22{fill-rule:evenodd;clip-rule:evenodd;fill:#659AD2;}
	.st23{fill-rule:evenodd;clip-rule:evenodd;fill:#FFFFFF;}
	.st24{fill-rule:evenodd;clip-rule:evenodd;fill:#00599C;}
	.st25{fill:#00ACD7;}
	.st26{fill:url(#XMLID_00000042726275733513190560000011949008078812105904_);}
	.st27{fill:url(#SVGID_00000155837935678358846500000011771280435186742186_);}
	.st28{fill:url(#SVGID_00000003082723899423257520000006478600879569970818_);}
	.st29{fill-rule:evenodd;clip-rule:evenodd;fill:url(#polygon3282_00000165924500596692922130000011783135433029050045_);}
	.st30{fill-rule:evenodd;clip-rule:evenodd;fill:url(#polygon3293_00000081625899761586505090000008941553868872513946_);}
	.st31{fill-rule:evenodd;clip-rule:evenodd;fill:url(#polygon3304_00000134939086653989135570000005094275199454690743_);}
	.st32{fill-rule:evenodd;clip-rule:evenodd;fill:url(#polygon3319_00000090288238822714318440000005362350832458045605_);}
	.st33{fill-rule:evenodd;clip-rule:evenodd;fill:url(#polygon3334_00000023244870595343843700000000954694336574996872_);}
	.st34{fill-rule:evenodd;clip-rule:evenodd;fill:url(#polygon3349_00000134212385291486936120000012562305010563338900_);}
	.st35{fill-rule:evenodd;clip-rule:evenodd;fill:url(#polygon3362_00000139290801280946846720000001480815797283455139_);}
	.st36{fill-rule:evenodd;clip-rule:evenodd;fill:url(#polygon3375_00000078024170023518181520000007859285650313883286_);}
	.st37{fill-rule:evenodd;clip-rule:evenodd;fill:url(#path3400_00000075140424093043415670000011799893145972843151_);}
	.st38{fill-rule:evenodd;clip-rule:evenodd;fill:url(#path3413_00000030457444927289629800000005336481571097843134_);}
	.st39{fill-rule:evenodd;clip-rule:evenodd;fill:url(#path3424_00000108306928483585280760000015307670712534901125_);}
	.st40{fill-rule:evenodd;clip-rule:evenodd;fill:url(#path3435_00000008844736361086106150000001519194421756559261_);}
	.st41{fill-rule:evenodd;clip-rule:evenodd;fill:#9E1209;}
	.st42{fill-rule:evenodd;clip-rule:evenodd;fill:url(#path3448_00000072971261853287002500000005227380103969723577_);}
	.st43{fill-rule:evenodd;clip-rule:evenodd;fill:url(#path3459_00000129207260152662222200000001776404827700590208_);}
	.st44{fill-rule:evenodd;clip-rule:evenodd;fill:url(#path3472_00000150098483277396738880000011894620340748696212_);}
	.st45{fill-rule:evenodd;clip-rule:evenodd;fill:url(#path3485_00000039132212388537308560000005286479757773488261_);}
	.st46{fill:#01579B;}
	.st47{fill:#40C4FF;}
	.st48{fill:#29B6F6;}
	.st49{opacity:0.2;fill:#FFFFFF;enable-background:new    ;}
	.st50{opacity:0.2;fill:#263238;enable-background:new    ;}
	.st51{opacity:0.2;fill:url(#SVGID_00000066493186128267655890000009743154298939264420_);enable-background:new    ;}
	.st52{fill:#F05138;}
	.st53{fill-rule:evenodd;clip-rule:evenodd;fill:url(#SVGID_00000123442755906022918540000016089608961722460592_);}
	.st54{fill-rule:evenodd;clip-rule:evenodd;fill:url(#SVGID_00000121248960921813411290000015897312227840448181_);}
	.st55{fill:#689F63;}
	.st56{stroke:#000000;stroke-width:37.3953;}
	.st57{fill:#336791;}
	.st58{fill:none;stroke:#FFFFFF;stroke-width:12.4651;stroke-linecap:round;stroke-linejoin:round;}
	.st59{fill:none;stroke:#FFFFFF;stroke-width:12.4651;stroke-linecap:round;stroke-linejoin:bevel;}
	.st60{fill:#FFFFFF;stroke:#FFFFFF;stroke-width:4.155;}
	.st61{fill:#FFFFFF;stroke:#FFFFFF;stroke-width:2.0775;}
	.st62{fill:none;stroke:#FFFFFF;stroke-width:3;stroke-linecap:round;stroke-linejoin:round;}
</style>
<g id="Layer_2">
</g>
<g id="Layer_1">
	<g id="PHP" transform="matrix(1.25,0,0,-1.25,-4.4,394.29875)">
		<g id="g3440">
			<g>
				<g>
					<g>
						<defs>
							<path id="SVGID_1_" d="M639.4-149.8c0-80.3,123.8-145.4,276.5-145.4l0,0c152.7,0,276.5,65.1,276.5,145.4l0,0
								c0,80.3-123.8,145.4-276.5,145.4l0,0C763.2-4.3,639.4-69.4,639.4-149.8"/>
						</defs>
						<clipPath id="SVGID_00000054955085125126343350000010547776627160375982_">
							<use xlink:href="#SVGID_1_"  style="overflow:visible;"/>
						</clipPath>
						<g id="g3442" style="clip-path:url(#SVGID_00000054955085125126343350000010547776627160375982_);">
							<g id="g3448">
								<g id="g3450">
									
										<radialGradient id="path3462_00000127755748242357359830000001740826575310604169_" cx="9.9852" cy="-1572.8024" r="1" gradientTransform="matrix(709.0975 0 0 -709.0975 -6275.0347 -1115325.625)" gradientUnits="userSpaceOnUse">
										<stop  offset="0" style="stop-color:#AEB2D5"/>
										<stop  offset="0.3" style="stop-color:#AEB2D5"/>
										<stop  offset="0.75" style="stop-color:#484C89"/>
										<stop  offset="1" style="stop-color:#484C89"/>
									</radialGradient>
									<path id="path3462" style="fill:url(#path3462_00000127755748242357359830000001740826575310604169_);" d="M639.4-149.8
										c0-80.3,123.8-145.4,276.5-145.4l0,0c152.7,0,276.5,65.1,276.5,145.4l0,0c0,80.3-123.8,145.4-276.5,145.4l0,0
										C763.2-4.3,639.4-69.4,639.4-149.8"/>
								</g>
							</g>
						</g>
					</g>
				</g>
			</g>
		</g>
		<g id="g3464">
			<g>
				<g>
					<g>
						<defs>
							<rect id="SVGID_00000164475238686089069750000013814976047044428959_" x="353.4" y="-466.2" width="1125" height="632.8"/>
						</defs>
						<clipPath id="SVGID_00000170261055142689124720000001750321033261062053_">
							<use xlink:href="#SVGID_00000164475238686089069750000013814976047044428959_"  style="overflow:visible;"/>
						</clipPath>
						<g id="g3466" style="clip-path:url(#SVGID_00000170261055142689124720000001750321033261062053_);">
							<g id="g3472" transform="translate(288,27.3594)">
								<path id="path3474" class="st3" d="M627.9-311.8c146.7,0,265.7,60.3,265.7,134.6c0,74.4-119,134.6-265.7,134.6
									s-265.7-60.3-265.7-134.6S481.2-311.8,627.9-311.8"/>
							</g>
						</g>
					</g>
				</g>
			</g>
		</g>
		<g id="g3476">
			<g>
				<g>
					<g>
						<defs>
							<rect id="SVGID_00000079456827358603907180000014792615890796735914_" x="353.4" y="-466.2" width="1125" height="632.8"/>
						</defs>
						<clipPath id="SVGID_00000170981143860737980540000007019205884778546619_">
							<use xlink:href="#SVGID_00000079456827358603907180000014792615890796735914_"  style="overflow:visible;"/>
						</clipPath>
						<g id="g3478" style="clip-path:url(#SVGID_00000170981143860737980540000007019205884778546619_);">
							<g id="g3484" transform="translate(161.7344,145.3066)">
								<path id="path3486" d="M627.9-311.8c12.1,0,21.1,2.2,26.8,6.6c5.6,4.3,9.5,11.9,11.6,22.4c1.9,9.8,1.2,16.7-2.2,20.3
									c-3.4,3.8-10.8,5.7-21.9,5.7h-19.3l-10.7-55H627.9z M564.9-379.5c-0.9,0-1.7,0.4-2.3,1.1s-0.8,1.6-0.6,2.5l28.3,145.8
									c0.3,1.4,1.5,2.4,2.9,2.4h61.1c19.2,0,33.5-5.2,42.4-15.5c9-10.3,11.8-24.8,8.3-42.9c-1.4-7.4-3.9-14.3-7.3-20.4
									c-3.4-6.2-8-11.9-13.5-16.9c-6.6-6.2-14.1-10.7-22.2-13.3c-8-2.6-18.3-3.9-30.5-3.9h-24.7l-7.1-36.3
									c-0.3-1.4-1.5-2.4-2.9-2.4h-31.9V-379.5z"/>
							</g>
							<g id="g3488" transform="translate(159.2236,197.3071)">
								<path id="path3490" class="st5" d="M627.9-311.8h16.8c13.4,0,18.1-2.9,19.7-4.7c2.6-2.9,3.1-9.1,1.4-17.8
									c-1.9-9.8-5.4-16.7-10.5-20.5c-5.2-4-13.6-6-24.9-6h-12L627.9-311.8z M656.8-276.8h-61.1c-2.9,0-5.3-2-5.9-4.9l-28.3-145.8
									c-0.3-1.8,0.1-3.6,1.3-5c1.1-1.4,2.8-2.2,4.6-2.2h31.8c2.9,0,5.3,2,5.9,4.9l6.6,33.9h22.2c12.6,0,23.2,1.4,31.5,4.1
									c8.5,2.8,16.4,7.5,23.4,14c5.8,5.3,10.5,11.2,14.1,17.7c3.6,6.4,6.2,13.6,7.7,21.3c3.7,19.1,0.7,34.4-9,45.5
									C691.9-282.3,676.8-276.8,656.8-276.8 M611.1-366.8h19.3c12.8,0,22.3,2.4,28.6,7.2c6.3,4.8,10.5,12.9,12.7,24.2
									c2.1,10.8,1.1,18.5-2.9,22.9c-4,4.5-12.1,6.7-24.1,6.7H623L611.1-366.8 M656.8-282.8c18.4,0,31.8-4.8,40.2-14.5
									c8.4-9.6,11-23.1,7.6-40.4c-1.4-7.1-3.7-13.6-7-19.5s-7.6-11.3-12.9-16.2c-6.3-5.9-13.4-10.2-21.1-12.7
									c-7.8-2.5-17.6-3.8-29.6-3.8h-27.2l-7.5-38.8h-31.8l28.3,145.8L656.8-282.8"/>
							</g>
							<g id="g3492" transform="translate(311.583,116.3066)">
								<path id="path3494" d="M627.9-311.8c-0.9,0-1.7,0.4-2.3,1.1s-0.8,1.6-0.6,2.5l12.5,64.5c1.2,6.1,0.9,10.5-0.8,12.4
									c-1.1,1.1-4.2,3-13.6,3h-22.7l-15.8-81.1c-0.3-1.4-1.5-2.4-2.9-2.4h-31.5c-0.9,0-1.7,0.4-2.3,1.1s-0.8,1.6-0.6,2.5
									l28.3,145.8c0.3,1.4,1.5,2.4,2.9,2.4H610c0.9,0,1.7-0.4,2.3-1.1c0.6-0.7,0.8-1.6,0.6-2.5l-6.8-35.2h24.4
									c18.6,0,31.2-3.3,38.6-10c7.5-6.9,9.8-17.9,6.9-32.7l-13.2-67.8c-0.3-1.4-1.5-2.4-2.9-2.4h-32L627.9-311.8L627.9-311.8z"/>
							</g>
							<g id="g3496" transform="translate(293.6611,271.0571)">
								<path id="path3498" class="st5" d="M627.9-311.8h-31.5c-2.9,0-5.3-2-5.9-4.9l-28.3-145.8c-0.3-1.8,0.1-3.6,1.3-5
									c1.1-1.4,2.8-2.2,4.6-2.2h31.5c2.9,0,5.3,2,5.9,4.9l15.3,78.6H641c9.4,0,11.3-2,11.4-2.1c0.6-0.6,1.3-3.4,0.1-9.8L640-462.4
									c-0.3-1.8,0.1-3.6,1.3-5c1.1-1.4,2.8-2.2,4.6-2.2h32c2.9,0,5.3,2,5.9,4.9l13.2,67.8c3.1,15.9,0.4,27.9-7.9,35.5
									c-7.9,7.3-21.2,10.8-40.6,10.8h-20.8l6.1,31.6c0.3,1.8-0.1,3.6-1.3,5C631.4-312.6,629.7-311.8,627.9-311.8 M627.9-317.8
									l-7.5-38.8h28.1c17.7,0,29.8-3.1,36.5-9.2c6.7-6.2,8.7-16.1,6-29.9l-13.2-67.8h-32l12.5,64.5c1.4,7.3,0.9,12.3-1.6,15
									s-7.7,4-15.8,4h-25.2l-16.2-83.5H568l28.3,145.8L627.9-317.8"/>
							</g>
							<g id="g3500" transform="translate(409.5498,145.3066)">
								<path id="path3502" d="M627.9-311.8c12.1,0,21.1,2.2,26.8,6.6c5.6,4.3,9.5,11.9,11.6,22.4c1.9,9.8,1.2,16.7-2.2,20.3
									c-3.4,3.8-10.8,5.7-21.9,5.7h-19.3l-10.7-55H627.9z M564.9-379.5c-0.9,0-1.7,0.4-2.3,1.1s-0.8,1.6-0.6,2.5l28.3,145.8
									c0.3,1.4,1.5,2.4,2.9,2.4h61.1c19.2,0,33.5-5.2,42.4-15.5c9-10.3,11.8-24.8,8.3-42.9c-1.4-7.4-3.9-14.3-7.3-20.4
									c-3.4-6.2-8-11.9-13.5-16.9c-6.6-6.2-14.1-10.7-22.2-13.3c-8-2.6-18.3-3.9-30.5-3.9h-24.7l-7.1-36.3
									c-0.3-1.4-1.5-2.4-2.9-2.4h-31.9V-379.5z"/>
							</g>
							<g id="g3504" transform="translate(407.0391,197.3071)">
								<path id="path3506" class="st5" d="M627.9-311.8h16.8c13.4,0,18.1-2.9,19.7-4.7c2.6-2.9,3.1-9.1,1.4-17.8
									c-1.9-9.8-5.4-16.7-10.5-20.5c-5.2-4-13.6-6-24.9-6h-12L627.9-311.8z M656.8-276.8h-61.1c-2.9,0-5.3-2-5.9-4.9l-28.3-145.8
									c-0.3-1.8,0.1-3.6,1.3-5c1.1-1.4,2.8-2.2,4.6-2.2h31.8c2.9,0,5.3,2,5.9,4.9l6.6,33.9h22.2c12.6,0,23.2,1.4,31.5,4.1
									c8.5,2.8,16.4,7.5,23.4,14c5.8,5.3,10.5,11.2,14.1,17.7c3.6,6.4,6.2,13.6,7.7,21.3c3.7,19.1,0.7,34.4-9,45.5
									C691.9-282.3,676.8-276.8,656.8-276.8 M611.1-366.8h19.3c12.8,0,22.3,2.4,28.6,7.2c6.3,4.8,10.5,12.9,12.7,24.2
									c2.1,10.8,1.1,18.5-2.9,22.9c-4,4.5-12.1,6.7-24.1,6.7H623L611.1-366.8 M656.8-282.8c18.4,0,31.8-4.8,40.2-14.5
									s11-23.1,7.6-40.4c-1.4-7.1-3.7-13.6-7-19.5s-7.6-11.3-12.9-16.2c-6.3-5.9-13.4-10.2-21.1-12.7c-7.8-2.5-17.6-3.8-29.6-3.8
									h-27.2l-7.5-38.8h-31.8l28.3,145.8L656.8-282.8"/>
							</g>
						</g>
					</g>
				</g>
			</g>
		</g>
	</g>
	<g id="C_x23_">
		<path class="st6" d="M1875.3,185.7c0-7.6-1.6-14.4-4.9-20.2c-3.2-5.7-8.1-10.5-14.6-14.3c-53.9-31.1-107.8-62-161.6-93.1
			c-14.5-8.4-28.6-8.1-43,0.4c-21.4,12.6-128.8,74.1-160.8,92.7c-13.2,7.6-19.6,19.3-19.6,34.5c0,62.5,0,124.9,0,187.4
			c0,7.5,1.6,14.1,4.7,19.8c3.2,5.9,8.2,10.8,14.9,14.6c32,18.5,139.3,80,160.8,92.7c14.4,8.5,28.5,8.8,43,0.4
			c53.8-31.1,107.8-62.1,161.6-93.1c6.7-3.9,11.6-8.8,14.9-14.6c3.2-5.7,4.7-12.3,4.7-19.8C1875.3,373,1875.3,248.2,1875.3,185.7"/>
		<path class="st7" d="M1673.6,278.8l-198.2,114.1c3.2,5.9,8.2,10.8,14.9,14.6c32,18.5,139.3,80,160.8,92.7
			c14.4,8.5,28.5,8.8,43,0.4c53.8-31.1,107.8-62.1,161.6-93.1c6.7-3.9,11.6-8.8,14.9-14.6L1673.6,278.8"/>
		<path class="st8" d="M1875.3,185.7c0-7.6-1.6-14.4-4.9-20.2l-196.7,113.3l197,114.1c3.2-5.7,4.7-12.3,4.7-19.8
			C1875.3,373,1875.3,248.2,1875.3,185.7"/>
		<path class="st5" d="M1790.3,236.1v21.3h21.3v-21.3h10.7v21.3h21.3v10.7h-21.3v21.3h21.3v10.7h-21.3v21.3h-10.7v-21.3h-21.3v21.3
			h-10.7v-21.3h-21.3v-10.7h21.3v-21.3h-21.3v-10.7h21.3v-21.3L1790.3,236.1L1790.3,236.1z M1811.6,268.1h-21.3v21.3h21.3V268.1z"/>
		<path class="st5" d="M1674.1,129c55.6,0,104.2,30.2,130.2,75.1l-0.3-0.4l-65.5,37.7c-12.9-21.8-36.5-36.6-63.7-36.9h-0.9
			c-41.4,0-74.9,33.5-74.9,74.9c0,13.5,3.6,26.2,9.9,37.2c12.9,22.5,37.2,37.7,65,37.7c28,0,52.4-15.4,65.3-38.2l-0.3,0.5l65.4,37.9
			c-25.7,44.5-73.6,74.7-128.6,75.3h-1.7c-55.8,0-104.5-30.4-130.5-75.5c-12.7-22-19.9-47.6-19.9-74.8
			C1523.7,196.3,1591,129,1674.1,129z"/>
	</g>
	<g id="MySQL">
		<path class="st9" d="M2,1169.4h21.9v-86.6l34,75.5c4,9.1,9.5,12.4,20.3,12.4s16-3.2,20-12.4l34-75.5v86.6h21.9v-86.5
			c0-8.4-3.4-12.5-10.3-14.6c-16.7-5.2-27.8-0.7-32.9,10.5l-33.3,74.5l-32.3-74.6c-4.9-11.3-16.2-15.8-32.9-10.5
			c-7,2.1-10.3,6.2-10.3,14.6L2,1169.4L2,1169.4z M172.4,1098.9h21.9v47.7c-0.2,2.6,0.8,8.7,12.9,8.9c6.1,0.1,47.3,0,47.7,0v-56.8
			h22c0.1,0,0,77.5,0,77.8c0.1,19.1-23.7,23.3-34.7,23.6h-69.3v-14.8h69.4c14.1-1.5,12.5-8.5,12.5-10.9v-5.8h-46.6
			c-21.7-0.2-35.5-9.7-35.7-20.6C172.4,1147.1,172.8,1099.4,172.4,1098.9L172.4,1098.9z"/>
		<path class="st10" d="M293.8,1169.4h63.1c7.4,0,14.6-1.5,20.3-4.2c9.5-4.4,14.1-10.3,14.1-18v-16c0-6.3-5.3-12.2-15.6-16.2
			c-5.5-2.1-12.2-3.2-18.8-3.2h-26.6c-8.9,0-13.1-2.7-14.1-8.6c-0.2-0.7-0.2-1.3-0.2-2v-10c0-0.6,0-1.1,0.2-1.8
			c1.1-4.5,3.4-5.8,11.2-6.5c0.6,0,1.5-0.1,2.1-0.1h62.7v-14.6h-61.6c-8.9,0-13.5,0.6-17.7,1.8c-13.1,4.1-18.8,10.6-18.8,21.8v12.8
			c0,9.8,11.2,18.3,30,20.3c2.1,0.1,4.2,0.3,6.3,0.3H353c0.8,0,1.7,0,2.3,0.1c7,0.6,9.9,1.8,12,4.4c1.3,1.3,1.7,2.5,1.7,3.9v12.8
			c0,1.5-1.1,3.5-3.2,5.2c-1.9,1.7-5.1,2.8-9.3,3.1c-0.8,0-1.5,0.1-2.3,0.1h-60.6L293.8,1169.4L293.8,1169.4z M528.1,1144
			c0,15.1,11.2,23.5,33.8,25.2c2.1,0.2,4.2,0.3,6.3,0.3h57.2v-14.6h-57.6c-12.9,0-17.7-3.2-17.7-11v-75.7h-21.9L528.1,1144
			L528.1,1144z M405.2,1144.7v-52.1c0-13.2,9.3-21.3,27.7-23.8c2-0.3,3.9-0.4,5.9-0.4h41.6c2.1,0,4.1,0.1,6.1,0.4
			c18.4,2.5,27.7,10.6,27.7,23.8v52.1c0,10.7-4,16.5-13.1,20.2l21.6,19.5h-25.5l-17.5-15.8l-17.6,1.1h-23.5c-4,0-8.2-0.6-12.9-1.8
			C412,1164.2,405.2,1156.8,405.2,1144.7L405.2,1144.7z M428.9,1143.4c0,0.7,0.2,1.4,0.4,2.3c1.3,6.1,7,9.4,15.6,9.4h19.9
			l-18.3-16.5H472l16,14.4c2.9-1.6,4.9-4,5.5-7c0.2-0.7,0.2-1.4,0.2-2.1v-50c0-0.6,0-1.3-0.2-2c-1.3-5.6-7-8.9-15.4-8.9H445
			c-9.8,0-16.1,4.2-16.1,10.9V1143.4L428.9,1143.4z"/>
		<g>
			<path class="st9" d="M644.7,1043.9c-13.5-0.4-23.8,0.9-32.6,4.6c-2.5,1.1-6.5,1.1-6.9,4.2c1.4,1.4,1.6,3.6,2.7,5.4
				c2.1,3.4,5.7,8,8.8,10.4c3.5,2.6,7,5.4,10.7,7.7c6.6,4,14,6.3,20.3,10.4c3.7,2.4,7.5,5.4,11.1,8.1c1.8,1.3,3,3.4,5.4,4.2v-0.4
				c-1.2-1.6-1.6-3.7-2.7-5.4l-5-5c-4.9-6.5-11.1-12.2-17.6-16.9c-5.2-3.8-17-8.9-19.2-15l-0.4-0.4c3.7-0.4,8.1-1.8,11.5-2.7
				c5.8-1.5,10.9-1.1,16.9-2.7l8.1-2.3v-1.5c-3-3.1-5.2-7.2-8.4-10c-8.6-7.3-18-14.6-27.6-20.7c-5.4-3.4-12-5.6-17.6-8.4
				c-1.9-1-5.3-1.5-6.5-3.1c-3-3.8-4.6-8.6-6.9-13c-4.8-9.3-9.5-19.4-13.8-29.1c-2.9-6.7-4.8-13.2-8.4-19.2
				c-17.4-28.6-36.2-45.9-65.2-62.9c-6.2-3.6-13.6-5-21.5-6.9l-12.7-0.8c-2.6-1.1-5.3-4.2-7.7-5.8c-9.6-6.1-34.3-19.3-41.4-2
				c-4.5,11,6.7,21.7,10.7,27.2c2.8,3.9,6.4,8.3,8.4,12.7c1.3,2.9,1.6,5.8,2.7,8.8c2.8,7.5,5.2,15.7,8.8,22.6
				c1.8,3.5,3.8,7.2,6.1,10.4c1.4,1.9,3.8,2.8,4.2,5.8c-2.4,3.3-2.5,8.5-3.8,12.7c-6,18.9-3.7,42.4,5,56.4c2.7,4.3,9,13.5,17.6,10
				c7.6-3.1,5.9-12.7,8.1-21.1c0.5-1.9,0.2-3.3,1.2-4.6v0.4l6.9,13.8c5.1,8.2,14.2,16.8,21.9,22.6c4,3,7.2,8.2,12.3,10v-0.4h-0.4
				c-1-1.6-2.6-2.2-3.8-3.4c-3-2.9-6.3-6.6-8.8-10c-7-9.5-13.2-19.9-18.8-30.7c-2.7-5.2-5-10.9-7.3-16.1c-0.9-2-0.9-5.1-2.7-6.1
				c-2.5,3.9-6.1,7-8.1,11.5c-3.1,7.3-3.5,16.1-4.6,25.3c-0.7,0.2-0.4,0.1-0.8,0.4c-5.3-1.3-7.2-6.8-9.2-11.5
				c-5-11.9-6-31.1-1.5-44.9c1.1-3.6,6.3-14.7,4.2-18c-1-3.3-4.3-5.2-6.1-7.7c-2.3-3.1-4.6-7.2-6.1-10.7c-4.1-9.3-6-19.7-10.4-29.1
				c-2.1-4.5-5.6-9-8.4-13c-3.2-4.4-6.7-7.7-9.2-13c-0.9-1.9-2.1-4.9-0.8-6.9c0.3-1.2,1.2-2,2.3-2.3c2.2-1.7,8.4,0.6,10.7,1.5
				c6.1,2.6,11.3,5,16.5,8.4c2.5,1.6,5,4.9,8.1,5.8h3.4c5.4,1.2,11.4,0.4,16.5,1.9c8.9,2.7,16.9,6.9,24.2,11.5
				c22.1,14,40.2,33.8,52.5,57.6c2,3.8,2.8,7.5,4.6,11.5c3.5,8.1,8,16.6,11.5,24.5c3.5,8,6.9,16,11.9,22.6
				c2.6,3.5,12.7,5.4,17.3,7.3c3.2,1.4,8.5,2.8,11.5,4.6c5.8,3.5,11.4,7.7,16.9,11.5c2.7,1.9,11.1,6.1,11.5,9.6L644.7,1043.9z"/>
			<path class="st11" d="M473.2,897.8c-2.8-0.1-4.8,0.3-6.9,0.8v0.4h0.4c1.3,2.8,3.7,4.5,5.4,6.9l3.8,8.1l0.4-0.4
				c2.4-1.7,3.5-4.4,3.4-8.4c-1-1-1.1-2.3-1.9-3.5C476.7,900,474.6,899.1,473.2,897.8L473.2,897.8z"/>
		</g>
		<path class="st12" d="M635.7,1154.4c0,9.7,7.6,16.2,16.2,16.2c8.5,0,16.2-6.5,16.2-16.2s-7.6-16.2-16.2-16.2
			C643.3,1138.2,635.7,1144.7,635.7,1154.4z M664.4,1154.4c0,7.3-5.6,12.8-12.6,12.8s-12.6-5.5-12.6-12.8s5.5-12.8,12.6-12.8
			C658.8,1141.6,664.4,1147,664.4,1154.4z M656.2,1163.6h3.6l-5.3-8.1c2.8-0.3,5-1.7,5-5c0-3.8-2.4-5.3-6.9-5.3h-7.2v18.5h3.1v-8
			h2.9L656.2,1163.6L656.2,1163.6z M648.5,1153v-5.3h3.6c1.9,0,4.1,0.3,4.1,2.5c0,2.6-2,2.8-4.4,2.8H648.5L648.5,1153z"/>
	</g>
	<g id="mongoDB">
		<path class="st13" d="M117.8,104.1c-13.4-58.9-41.2-74.6-48.3-85.7c-2.9-4.9-5.4-9.9-7.7-15.2c-0.3,5.2-1,8.6-5.5,12.5
			c-9,8-47,38.9-50.1,105.9c-3,62.5,45.9,101,52.4,104.9c5,2.4,11,0.1,14-2.2C96.1,208.1,128.3,165,117.8,104.1"/>
		<path class="st14" d="M63.8,193.3c-1.2,15.4-2.1,24.4-5.2,33.3c0,0,2,14.7,3.5,30.3h5.1c1.2-11,3.1-21.9,5.6-32.6
			C66.1,220.9,64,206.8,63.8,193.3z"/>
		<path class="st15" d="M72.7,224.2L72.7,224.2c-6.6-3.1-8.6-17.5-8.9-31c1.7-22.2,2.1-44.4,1.5-66.7c-0.3-11.7,0.2-108-2.9-122.1
			c2.1,4.8,4.5,9.4,7.2,13.9c7.1,11.1,35,26.8,48.3,85.7C128.3,164.9,96.2,207.9,72.7,224.2z"/>
		<path class="st5" d="M951.5,202.9c-8,0-14.5-6.5-14.5-14.5s6.5-14.5,14.5-14.5c7.9,0,14.4,6.4,14.5,14.3c0.2,7.9-6,14.5-13.9,14.7
			C951.9,202.9,951.7,202.9,951.5,202.9 M951.5,175.2c-7.2-0.1-13.2,5.8-13.3,13.1c-0.1,7.2,5.8,13.2,13.1,13.3
			c7.2,0.1,13.2-5.8,13.3-13.1c0,0,0,0,0-0.1c0.2-7.2-5.6-13.1-12.7-13.2C951.8,175.2,951.7,175.2,951.5,175.2 M955,197.6l-3.8-8h-3
			v8H946v-18.3h5.4c4,0,5.7,1.7,5.7,5.1c0,2.7-1.2,4.4-3.7,4.9l3.8,8.3H955z M948.4,187.6h3.1c2.5,0,3.6-0.9,3.6-3.2s-1-3.1-3.8-3.1
			h-2.9L948.4,187.6L948.4,187.6z"/>
		<path class="st5" d="M736,189.7c3.9,3.1,11.8,4.5,18.7,4.5c8.9,0,17.7-1.7,26.3-9.4c8.7-7.9,14.7-20.1,14.7-39.4
			c0-18.6-7.1-33.8-21.6-42.6c-8.2-5.1-18.9-7.2-31-7.2c-3.5,0-7.1,0.2-9.2,1.1c-0.9,0.7-1.4,1.6-1.7,2.6
			c-0.3,3.3-0.3,28.5-0.3,43.5c0,15.3,0,36.7,0.3,39.3C732.5,184.2,733.6,188.1,736,189.7 M698.9,87.2c3.1,0,15.2,0.5,20.8,0.5
			c10.5,0,17.7-0.5,37.3-0.5c16.4,0,30.2,4.5,40.1,12.9c12,10.3,18.3,24.7,18.3,42.2c0,24.9-11.3,39.3-22.8,47.4
			c-11.3,8.5-26.1,13.3-47.1,13.3c-11.2,0-30.4-0.3-46.4-0.5h-0.3c-0.8-1.5,1.4-7.2,2.7-7.3c4.4-0.5,5.5-0.7,7.5-1.5
			c3.4-1.4,4.2-3.1,4.5-9.2c0.5-11.4,0.3-25,0.3-40.6c0-11.1,0.2-32.6-0.2-39.4c-0.6-5.7-3-7.2-7.9-8.3c-3.5-0.7-7-1.3-10.5-1.7
			C694.9,93.3,697.8,88.3,698.9,87.2"/>
		<path class="st5" d="M861.5,96.6c-0.7,0.2-1.7,2-1.7,3c-0.2,6.6-0.3,24-0.3,36c0.1,0.4,0.4,0.9,1,1c2.4,0.2,8.4,0.3,13.4,0.3
			c7.1,0,11.2-1,13.4-2c5.9-3,8.7-9.4,8.7-16.4c0-16.1-11.2-22.1-27.8-22.1C866,96.1,863.7,96.2,861.5,96.6 M903.9,170.3
			c0-16.2-12-25.4-33.8-25.4c-1,0-7.9-0.2-9.5,0.2c-0.5,0.2-1.1,0.5-1.1,1c0,11.6-0.2,30.2,0.3,37.6c0.3,3.1,2.6,7.6,5.4,8.8
			c3,1.7,9.7,2,14.4,2C892.4,194.4,903.9,187.3,903.9,170.3 M827.8,87.5c1.7,0,6.6,0.5,19.3,0.5c12,0,21.6-0.3,33.2-0.3
			c14.3,0,34.1,5.1,34.1,26.5c0,10.5-7.4,19-17.2,23c-0.5,0.2-0.5,0.5,0,0.7c13.8,3.5,25.9,12,25.9,28.2c0,15.9-9.9,25.8-24.3,32.1
			c-8.7,3.8-19.5,5.1-30.5,5.1c-8.4,0-30.9-0.9-43.4-0.7c-1.3-0.5,1.2-6.5,2.4-7.3c2.9-0.1,5.7-0.5,8.5-1.3c4.5-1.1,5-2.5,5.6-9.2
			c0.3-5.8,0.3-26.2,0.3-40.8c0-19.9,0.2-33.3,0-40c-0.2-5.1-2-6.8-5.6-7.8c-2.8-0.5-7.4-1.1-11.2-1.7
			C824.1,93.8,827,88.2,827.8,87.5"/>
		<path class="st5" d="M159.2,202.9c-0.5-1.2-0.7-2.4-0.5-3.8c0-0.9,0.2-1.7,0.5-2.5c2.4-0.3,4.8-0.9,7.2-1.5
			c3.3-0.8,4.5-2.6,4.7-6.8c0.5-9.9,0.6-28.6,0.3-41.7v-0.3c0-1.4,0-3.3-1.7-4.7c-3.1-1.9-6.4-3.4-9.9-4.4c-1.6-0.4-2.4-1.3-2.4-2.3
			s1-2.1,3.1-2.5c5.4-0.5,19.5-3.9,25.1-6.5c0.6,0.8,0.9,1.7,0.8,2.6c0,0.6-0.1,1.2-0.2,1.8c-0.2,1.8-0.3,3.9-0.3,6
			c0.1,0.8,0.8,1.3,1.6,1.2c0.3,0,0.6-0.2,0.8-0.3c10.6-8.3,20.1-11.3,25-11.3c8,0,14.2,3.8,19,11.7c0.3,0.3,0.6,0.6,1,0.6
			s0.8-0.2,1-0.5c9.7-7.4,19.4-11.8,25.8-11.8c15.3,0,24.3,11.4,24.3,30.5c0,5.5-0.1,12.5-0.1,18.9c0,5.7-0.1,11.1-0.1,14.7
			c0,0.9,1.2,3.4,3.1,3.8c2.3,1,5.4,1.7,9.5,2.4h0.2c0.3,1.1-0.3,5.3-1,6.2c-1,0-2.4-0.1-4.2-0.2c-3.1-0.2-7.5-0.3-12.6-0.3
			c-10.1,0-15.4,0.2-20.5,0.5c-0.3-1.2-0.5-5.3-0.1-6.2c2.1-0.3,4.2-0.8,6.2-1.4c3.2-1,4.2-2.5,4.4-6.8c0.1-3.1,0.7-29.8-0.3-36.2
			c-1-6.6-5.9-14.3-16.8-14.3c-4,0-10.6,1.7-16.8,6.4c-0.3,0.4-0.6,1-0.6,1.6v0.1c0.7,3.4,0.7,7.4,0.7,13.5c0,3.5,0,7.2,0,10.7
			c0,7.4-0.1,14.4,0,19.6c0,3.6,2.2,4.5,3.9,5.1c1,0.2,1.7,0.3,2.4,0.5c1.5,0.3,3,0.7,5.2,1c0.3,1.6,0.3,3.1-0.1,4.6
			c-0.1,0.6-0.3,1.1-0.7,1.6c-5.7-0.2-11.4-0.3-19.8-0.3c-2.5,0-6.6,0.1-10.3,0.2c-3,0.1-5.8,0.2-7.3,0.2c-0.4-1-0.6-2.1-0.5-3.2
			c-0.1-1,0.1-2.1,0.6-3l2.3-0.4c1.9-0.3,3.7-0.6,5.2-1c2.8-0.9,3.8-2.4,4-5.9c0.5-8.2,1-31.9-0.2-37.8c-2-9.5-7.3-14.3-16.1-14.3
			c-5.1,0-11.5,2.4-16.8,6.4c-1,1-1.6,2.4-1.6,3.8c0,2.8,0,6.2,0,9.8c0,11.9-0.1,26.6,0.2,33.1c0.2,2,0.9,4.3,4.5,5.1
			c0.8,0.3,2.2,0.4,3.8,0.7c1,0.2,1.9,0.3,3,0.5c0.3,2.1,0.2,4.2-0.5,6.2c-1.7,0-3.6-0.1-5.9-0.2c-3.5-0.2-7.9-0.3-12.7-0.3
			c-5.8,0-9.9,0.2-13.2,0.3C162.9,202.8,161,202.9,159.2,202.9"/>
		<path class="st5" d="M346.3,133.9c-3.1-0.1-6.3,0.8-8.9,2.5c-6.5,3.9-9.8,11.8-9.8,23.4c0,21.6,10.8,36.7,26.4,36.7
			c4.2,0.2,8.2-1.3,11.3-4c4.8-3.8,7.3-11.9,7.3-23C372.6,148.2,362,133.9,346.3,133.9 M349.2,204.5c-28,0-38-20.6-38-39.8
			c0-13.4,5.5-23.9,16.3-31.2c7.6-4.7,16.3-7.2,25.2-7.4c21.4,0,36.3,15.4,36.3,37.4c0,14.9-5.9,26.8-17.3,34.1
			C366.4,201,357,204.5,349.2,204.5"/>
		<path class="st5" d="M631.5,133.9c-3.1-0.1-6.3,0.8-8.9,2.5c-6.5,3.9-9.8,11.8-9.8,23.4c0,21.6,10.8,36.7,26.4,36.7
			c4.2,0.2,8.2-1.3,11.4-4c4.8-3.8,7.2-11.9,7.2-23C657.8,148.2,647.3,133.9,631.5,133.9 M634.5,204.5c-28,0-38-20.6-38-39.8
			c0-13.4,5.5-23.9,16.3-31.2c7.6-4.7,16.3-7.2,25.2-7.4c21.4,0,36.3,15.4,36.3,37.4c0,15-5.9,26.8-17.3,34.1
			C651.6,201,642.2,204.5,634.5,204.5"/>
		<path class="st5" d="M537.1,133.2c-8.6,0-14.2,6.8-14.2,17.4c0,10.6,4.8,23.1,18.3,23.1c2.4,0,6.5-1,8.6-3.3
			c3.1-2.9,5.2-8.8,5.2-15.2C555.1,141.4,548.4,133.2,537.1,133.2 M536.1,206c-2.4,0-4.8,0.6-7,1.7c-6.8,4.4-10,8.7-10,13.8
			c0,4.7,1.8,8.6,5.8,11.9c4.8,4.1,11.3,6,19.8,6c16.8,0,24.3-9,24.3-17.9c0-6.2-3.1-10.4-9.5-12.7C554.5,207,546.2,206,536.1,206
			 M537.2,248.8c-10,0-17.3-2.1-23.5-6.9c-6-4.6-8.7-11.5-8.7-16.3c0.1-3.1,1.2-6,3.3-8.3c1.7-2,5.8-5.8,15.2-12.1
			c0.3-0.1,0.5-0.4,0.5-0.8c0-0.3-0.3-0.7-0.6-0.8c-7.7-3-10-7.9-10.7-10.5c0-0.1,0-0.3-0.1-0.4c-0.2-1-0.4-2,1-3
			c1-0.8,2.8-1.8,4.6-2.9c2.6-1.5,5.1-3.1,7.5-4.9c0.4-0.5,0.4-1.3-0.1-1.7c-0.1-0.1-0.2-0.2-0.3-0.2c-11.4-3.8-17.2-12.3-17.2-25.3
			c-0.1-8.2,3.8-16,10.6-20.7c4.6-3.7,16.1-8,23.7-8h0.4c7.7,0.2,12,1.8,18.1,4c3.4,1.2,7.1,1.8,10.6,1.7c6.4,0,9.2-2,11.5-4.4
			c0.3,1,0.6,2.2,0.6,3.3c0.2,2.7-0.6,5.3-2.1,7.6c-1.3,1.8-4.4,3.1-7.2,3.1c-0.3,0-0.6,0-0.9-0.1c-1.5-0.1-3-0.3-4.4-0.7l-0.7,0.3
			c-0.3,0.3-0.1,0.7,0.1,1.1c0.1,0.1,0.1,0.2,0.1,0.3c0.5,2.4,0.9,4.7,1,7.1c0,13.6-5.3,19.5-11.2,23.8c-5.6,4.2-12.2,6.8-19.2,7.4
			l0,0c-0.2,0-0.9,0.1-2.3,0.2c-0.9,0.1-2,0.2-2.2,0.2h-0.2c-1.2,0.3-4.5,1.9-4.5,4.8c0,2.4,1.5,5.4,8.6,5.9l4.6,0.3
			c9.3,0.7,21,1.5,26.5,3.3c7.5,2.6,12.4,9.8,12.3,17.7c0,12.2-8.6,23.7-23.1,30.6c-6.8,3.2-14.3,5-21.9,4.9"/>
		<path class="st5" d="M494.4,196.4c-4.1-0.5-7.1-1.1-10.6-2.8c-0.7-0.7-1.1-1.7-1.3-2.6c-0.3-5.8-0.3-22.3-0.3-33.2
			c0-8.8-1.5-16.6-5.2-22.2c-4.5-6.3-10.8-9.9-19-9.9c-7.2,0-16.9,5-25,11.8c-0.2,0.2-1.4,1.4-1.4-0.4s0.3-5.5,0.4-7.9
			c0.2-1.3-0.3-2.5-1.2-3.4c-5.2,2.6-19.9,6.1-25.4,6.6c-3.9,0.8-5,4.5-0.7,5.9h0.1c3.4,1,6.6,2.4,9.6,4.2c1.7,1.3,1.5,3.1,1.5,4.6
			c0.2,12.3,0.2,31.3-0.3,41.6c-0.2,4-1.3,5.5-4.3,6.3l0.3-0.1c-2.3,0.6-4.5,1-6.9,1.3c-1,1-1,6.3,0,7.3c1.8,0,11.3-0.5,19.2-0.5
			c10.8,0,16.4,0.5,19.2,0.5c1.1-1.3,1.5-6.3,0.8-7.3c-2.6-0.1-5.1-0.5-7.7-1.1c-3-0.7-3.8-2.2-3.9-5.5C432,181,432,162.5,432,150
			c0-3.5,1-5.1,2-6.1c3.8-3.3,9.9-5.5,15.3-5.5c5.2,0,8.7,1.7,11.3,3.8c3.1,2.6,5,6.4,5.3,10.4c0.7,7,0.5,21,0.5,33.2
			c0,6.6-0.5,8.3-3,9.1c-1.1,0.5-4.1,1.1-7.7,1.5c-1.1,1.1-0.8,6.3,0,7.3c4.8,0,10.5-0.5,18.7-0.5c10.3,0,16.8,0.5,19.4,0.5
			C494.7,202.4,495.2,197.6,494.4,196.4"/>
	</g>
	<g id="Java">
		<path class="st16" d="M93.4,649.6c0,0-14.7,9,10.3,11.5c30.2,3.8,46.1,3.2,79.4-3.2c0,0,9,5.8,21.1,10.3
			C129.2,700.2,34.4,666.3,93.4,649.6z M83.8,608c0,0-16,12.2,9,14.7c32.7,3.2,58.3,3.8,102.5-5.1c0,0,5.8,6.4,15.4,9.6
			C120.3,654.1,19.1,629.8,83.8,608L83.8,608z M260.6,681c0,0,10.9,9-12.2,16c-42.9,12.8-180,16.7-218.5,0
			c-13.4-5.8,12.2-14.1,20.5-15.4c8.3-1.9,12.8-1.9,12.8-1.9c-14.7-10.3-98,21.1-42.3,30.2C174.1,734.9,300.3,699,260.6,681
			L260.6,681z M100.4,564.4c0,0-69.8,16.7-25,22.4c19.2,2.6,57,1.9,92.3-0.6c28.8-2.6,57.7-7.7,57.7-7.7s-10.3,4.5-17.3,9
			c-71.2,18.6-207.6,10.3-168.5-9C72.9,562.5,100.4,564.4,100.4,564.4z M225.3,634.2c71.8-37.2,38.4-73,15.4-68.5
			c-5.8,1.3-8.3,2.6-8.3,2.6s1.9-3.8,6.4-5.1c45.5-16,81.4,48-14.7,73C224.1,636.2,224.7,635.5,225.3,634.2L225.3,634.2z
			 M107.5,735.5c69.2,4.5,174.9-2.6,177.5-35.2c0,0-5.1,12.8-57,22.4c-58.9,10.9-132,9.6-174.9,2.6C53,725.2,62,732.9,107.5,735.5
			L107.5,735.5z"/>
		<path class="st17" d="M181.7,353c0,0,39.7,40.4-37.8,101.2c-62.1,49.3-14.1,77.5,0,109.5c-36.5-32.7-62.8-61.5-44.8-88.4
			C125.4,435.6,197.8,416.4,181.7,353z M161.2,536.9c18.6,21.1-5.1,40.4-5.1,40.4s47.4-24.3,25.6-54.5c-19.9-28.8-35.2-42.9,48-91
			C229.8,431.8,98.5,464.5,161.2,536.9L161.2,536.9z"/>
		<path class="st16" d="M128.2,872.6v-62.8c0-16-9-26.9-31.4-26.9c-12.8,0-23.7,3.2-33.3,7l3.2,11.5c7-2.6,16-5.1,25.6-5.1
			c12.2,0,17.9,5.1,17.9,15.4v8.3h-6.4C73,820,59,831.5,59,850.2c0,15.4,9.6,24.3,26.9,24.3c10.9,0,19.2-5.1,26.9-11.5l1.3,9.6
			H128.2L128.2,872.6z M110.2,852.1c-6.4,5.8-13.4,9-19.9,9c-8.3,0-13.4-5.1-13.4-14.1s5.1-15.4,25.6-15.4h7.7L110.2,852.1
			L110.2,852.1z M188.4,872.6H166l-26.9-87.8h19.2l16.7,53.8l3.8,16c8.3-23.1,14.7-46.8,17.3-69.8h19.2
			C210.2,813.7,201.2,845.1,188.4,872.6L188.4,872.6z M292.2,872.6v-62.8c0-16-9-26.9-31.4-26.9c-12.8,0-23.7,3.2-33.3,7l2.6,11.5
			c7.7-2.6,16.7-5.1,26.3-5.1c12.2,0,17.9,5.1,17.9,15.4v8.3h-6.4c-30.8,0-44.8,11.5-44.8,30.2c0,15.4,9,24.3,26.3,24.3
			c11.5,0,19.9-5.1,27.6-11.5l1.3,9.6H292.2L292.2,872.6z M274.2,852.1c-6.4,5.8-13.4,9-19.9,9c-8.3,0-13.4-5.1-13.4-14.1
			s5.1-15.4,25.6-15.4h7.7L274.2,852.1L274.2,852.1z M39.1,887.3C34,895,26.3,900.8,16.7,904l-8.3-10.3c6.4-3.8,12.8-9.6,15.4-14.7
			c2.6-4.5,3.2-10.9,3.2-25.6v-99.9h19.2v98.7C46.2,872,44.2,879.7,39.1,887.3L39.1,887.3z"/>
	</g>
	<g id="C_x2B__x2B_">
		<path class="st18" d="M2296.2,394.7c3.2-5.5,5.2-11.7,5.2-17.3V183.8c0-5.6-2-11.8-5.2-17.3l-197.6,114.1L2296.2,394.7z"/>
		<path class="st19" d="M2116.2,504.6l167.6-96.8c4.8-2.8,9.2-7.6,12.4-13.1l-197.6-114.1L1901,394.7c3.2,5.5,7.6,10.3,12.4,13.1
			l167.6,96.8C2090.7,510.2,2106.5,510.2,2116.2,504.6z"/>
		<path class="st20" d="M2296.2,166.5c-3.2-5.5-7.6-10.3-12.4-13.1l-167.6-96.8c-9.7-5.6-25.5-5.6-35.1,0l-167.6,96.8
			c-9.7,5.6-17.6,19.3-17.6,30.4v193.6c0,5.6,2,11.8,5.2,17.3l197.6-114.1L2296.2,166.5z"/>
		<g>
			<path class="st5" d="M2098.6,415.8c-74.5,0-135.2-60.6-135.2-135.2s60.6-135.2,135.2-135.2c48.1,0,93,25.9,117.1,67.5l-58.5,33.9
				c-12.1-20.9-34.5-33.8-58.6-33.8c-37.3,0-67.6,30.3-67.6,67.6s30.3,67.6,67.6,67.6c24.1,0,46.5-13,58.6-33.8l58.5,33.9
				C2191.6,389.9,2146.7,415.8,2098.6,415.8z"/>
		</g>
		<g>
			<polygon class="st5" points="2233.8,273.1 2218.8,273.1 2218.8,258.1 2203.8,258.1 2203.8,273.1 2188.7,273.1 2188.7,288.1 
				2203.8,288.1 2203.8,303.1 2218.8,303.1 2218.8,288.1 2233.8,288.1 			"/>
		</g>
		<g>
			<polygon class="st5" points="2290.1,273.1 2275.1,273.1 2275.1,258.1 2260.1,258.1 2260.1,273.1 2245.1,273.1 2245.1,288.1 
				2260.1,288.1 2260.1,303.1 2275.1,303.1 2275.1,288.1 2290.1,288.1 			"/>
		</g>
	</g>
	<g id="C">
		<path id="path2" class="st21" d="M1873.6,420.9c7.4-4.1,16.5-4.1,23.9,0c36.5,20.5,146.4,82.2,183,102.7
			c7.4,4.1,11.9,11.8,11.9,20.1c0,41,0,164.4,0,205.4c0,8.3-4.6,16-11.9,20.1c-36.5,20.5-146.4,82.2-183,102.7
			c-7.4,4.1-16.5,4.1-23.9,0c-36.5-20.5-146.4-82.2-183-102.7c-7.4-4.1-11.9-11.8-11.9-20.1c0-41,0-164.4,0-205.4
			c0-8.3,4.6-16,11.9-20.1C1727.1,503.1,1837.1,441.4,1873.6,420.9L1873.6,420.9z"/>
		<path id="path4" class="st22" d="M1682,759.7c-2.9-3.9-3.3-7.6-3.3-12.5c0-40.8,0-163.4,0-204.2c0-8.3,4.5-15.9,11.9-20
			c36.4-20.4,145.9-81.7,182.3-102.1c7.4-4.1,17.4-4,24.7,0.1c36.4,20.4,145.6,81.2,182,101.6c2.9,1.7,5.2,3.6,7.2,6.3L1682,759.7z"
			/>
		<path id="path6" class="st23" d="M1885.5,494c84.1,0,152.4,68.3,152.4,152.4s-68.3,152.4-152.4,152.4s-152.4-68.3-152.4-152.4
			S1801.4,494,1885.5,494z M1885.5,570.2c42.1,0,76.2,34.1,76.2,76.2c0,42.1-34.2,76.2-76.2,76.2c-42.1,0-76.2-34.2-76.2-76.2
			C1809.3,604.3,1843.4,570.2,1885.5,570.2z"/>
		<path id="path8" class="st24" d="M2086.7,528.9c5.6,5.3,5.5,13.2,5.5,19.4c0,41.3-0.3,158.8,0.1,200.1c0,4.3-1.4,8.9-3.5,12.3
			L1881,646.4L2086.7,528.9z"/>
	</g>
	<g id="Go">
		<g>
			<g>
				<g>
					<path class="st25" d="M1696.4,1009.1c-1.3,0-1.7-0.7-1-1.7l7-9c0.7-1,2.3-1.7,3.7-1.7H1825c1.3,0,1.7,1,1,2l-5.7,8.7
						c-0.7,1-2.3,2-3.3,2L1696.4,1009.1z"/>
				</g>
			</g>
		</g>
		<g>
			<g>
				<g>
					<path class="st25" d="M1646.1,1039.7c-1.3,0-1.7-0.7-1-1.7l7-9c0.7-1,2.3-1.7,3.7-1.7h151.8c1.3,0,2,1,1.7,2l-2.7,8
						c-0.3,1.3-1.7,2-3,2L1646.1,1039.7z"/>
				</g>
			</g>
		</g>
		<g>
			<g>
				<g>
					<path class="st25" d="M1726.7,1070.4c-1.3,0-1.7-1-1-2l4.7-8.3c0.7-1,2-2,3.3-2h66.6c1.3,0,2,1,2,2.3l-0.7,8
						c0,1.3-1.3,2.3-2.3,2.3L1726.7,1070.4z"/>
				</g>
			</g>
		</g>
		<g>
			<g id="CXHf1q_3_">
				<g>
					<g>
						<path class="st25" d="M2072.3,1003.1c-21,5.3-35.3,9.3-55.9,14.6c-5,1.3-5.3,1.7-9.7-3.3c-5-5.7-8.7-9.3-15.6-12.7
							c-21-10.3-41.3-7.3-60.3,5c-22.6,14.6-34.3,36.3-34,63.3c0.3,26.6,18.6,48.6,44.9,52.3c22.6,3,41.6-5,56.6-22
							c3-3.7,5.7-7.7,9-12.3c-12,0-27,0-64.3,0c-7,0-8.7-4.3-6.3-10c4.3-10.3,12.3-27.6,17-36.3c1-2,3.3-5.3,8.3-5.3
							c17,0,79.6,0,121.2,0c-0.7,9-0.7,18-2,27c-3.7,24-12.7,45.9-27.3,65.3c-24,31.6-55.3,51.3-94.9,56.6c-32.6,4.3-62.9-2-89.6-22
							c-24.6-18.6-38.6-43.3-42.3-73.9c-4.3-36.3,6.3-68.9,28.3-97.5c23.6-31,54.9-50.6,93.2-57.6c31.3-5.7,61.3-2,88.2,16.3
							c17.6,11.7,30.3,27.6,38.6,46.9C2077.6,1000.5,2076.3,1002.1,2072.3,1003.1z"/>
					</g>
					<g>
						<path class="st25" d="M2182.5,1187.2c-30.3-0.7-57.9-9.3-81.2-29.3c-19.6-17-32-38.6-36-64.3c-6-37.6,4.3-70.9,27-100.5
							c24.3-32,53.6-48.6,93.2-55.6c34-6,65.9-2.7,94.9,17c26.3,18,42.6,42.3,46.9,74.2c5.7,44.9-7.3,81.6-38.3,112.9
							c-22,22.3-48.9,36.3-79.9,42.6C2200.1,1185.9,2191.1,1186.2,2182.5,1187.2z M2261.7,1052.7c-0.3-4.3-0.3-7.7-1-11
							c-6-33-36.3-51.6-67.9-44.3c-31,7-50.9,26.6-58.3,57.9c-6,26,6.7,52.3,30.6,62.9c18.3,8,36.6,7,54.3-2
							C2245.7,1102.7,2260.1,1081.4,2261.7,1052.7z"/>
					</g>
				</g>
			</g>
		</g>
	</g>
	<g id="Kotlin">
		
			<linearGradient id="XMLID_00000119798769262313152600000011270047699638262942_" gradientUnits="userSpaceOnUse" x1="499.2912" y1="1944.7091" x2="646.2252" y2="1797.7745" gradientTransform="matrix(1 0 0 1 0 -1139)">
			<stop  offset="9.677000e-02" style="stop-color:#0095D5"/>
			<stop  offset="0.3007" style="stop-color:#238AD9"/>
			<stop  offset="0.6211" style="stop-color:#557BDE"/>
			<stop  offset="0.8643" style="stop-color:#7472E2"/>
			<stop  offset="1" style="stop-color:#806EE3"/>
		</linearGradient>
		<polygon id="XMLID_2_" style="fill:url(#XMLID_00000119798769262313152600000011270047699638262942_);" points="416.5,733 
			572.5,577 727.5,733 		"/>
		
			<linearGradient id="SVGID_00000069394080904637741080000015781429299292667534_" gradientUnits="userSpaceOnUse" x1="438.2807" y1="1623.4695" x2="523.6202" y2="1538.1306" gradientTransform="matrix(1 0 0 1 0 -1139)">
			<stop  offset="0.1183" style="stop-color:#0095D5"/>
			<stop  offset="0.4178" style="stop-color:#3C83DC"/>
			<stop  offset="0.6962" style="stop-color:#6D74E1"/>
			<stop  offset="0.8333" style="stop-color:#806EE3"/>
		</linearGradient>
		<polygon style="fill:url(#SVGID_00000069394080904637741080000015781429299292667534_);" points="416.5,422 572.5,422 
			416.5,590.5 		"/>
		
			<linearGradient id="SVGID_00000096776933373343381890000003758160774374129332_" gradientUnits="userSpaceOnUse" x1="364.1036" y1="1846.8965" x2="653.5057" y2="1557.4943" gradientTransform="matrix(1 0 0 1 0 -1139)">
			<stop  offset="0.1075" style="stop-color:#C757BC"/>
			<stop  offset="0.2138" style="stop-color:#D0609A"/>
			<stop  offset="0.4254" style="stop-color:#E1725C"/>
			<stop  offset="0.6048" style="stop-color:#EE7E2F"/>
			<stop  offset="0.743" style="stop-color:#F58613"/>
			<stop  offset="0.8232" style="stop-color:#F88909"/>
		</linearGradient>
		<polygon style="fill:url(#SVGID_00000096776933373343381890000003758160774374129332_);" points="572.5,422 416.5,586.3 
			416.5,733 572.5,577 727.5,422 		"/>
	</g>
	<g id="Ruby">
		
			<linearGradient id="polygon3282_00000062162124133469716370000009232922632219434941_" gradientUnits="userSpaceOnUse" x1="2371.5603" y1="301.0915" x2="2322.7166" y2="387.3279" gradientTransform="matrix(1 0 0 -1 0 1202)">
			<stop  offset="0" style="stop-color:#FB7655"/>
			<stop  offset="0" style="stop-color:#FB7655"/>
			<stop  offset="0.41" style="stop-color:#E42B1E"/>
			<stop  offset="0.99" style="stop-color:#990000"/>
			<stop  offset="1" style="stop-color:#990000"/>
		</linearGradient>
		
			<polygon id="polygon3282" style="fill-rule:evenodd;clip-rule:evenodd;fill:url(#polygon3282_00000062162124133469716370000009232922632219434941_);" points="
			2347.6,801.4 2215.3,880 2386.6,868.3 2399.6,695.7 		"/>
		
			<linearGradient id="polygon3293_00000137810877608000849710000012697258318721920419_" gradientUnits="userSpaceOnUse" x1="2395.9082" y1="373.5492" x2="2332.9595" y2="415.7916" gradientTransform="matrix(1 0 0 -1 0 1202)">
			<stop  offset="0" style="stop-color:#871101"/>
			<stop  offset="0" style="stop-color:#871101"/>
			<stop  offset="0.99" style="stop-color:#911209"/>
			<stop  offset="1" style="stop-color:#911209"/>
		</linearGradient>
		
			<polygon id="polygon3293" style="fill-rule:evenodd;clip-rule:evenodd;fill:url(#polygon3293_00000137810877608000849710000012697258318721920419_);" points="
			2386.8,868.2 2372.1,766.7 2331.9,819.6 		"/>
		
			<linearGradient id="polygon3304_00000032640626352081061650000006185848513341722772_" gradientUnits="userSpaceOnUse" x1="2345.5247" y1="298.4668" x2="2282.5779" y2="340.7079" gradientTransform="matrix(1 0 0 -1 0 1202)">
			<stop  offset="0" style="stop-color:#871101"/>
			<stop  offset="0" style="stop-color:#871101"/>
			<stop  offset="0.99" style="stop-color:#911209"/>
			<stop  offset="1" style="stop-color:#911209"/>
		</linearGradient>
		
			<polygon id="polygon3304" style="fill-rule:evenodd;clip-rule:evenodd;fill:url(#polygon3304_00000032640626352081061650000006185848513341722772_);" points="
			2386.9,868.2 2279.2,859.8 2215.9,879.8 		"/>
		
			<linearGradient id="polygon3319_00000060730631301912374550000009304325541794706064_" gradientUnits="userSpaceOnUse" x1="2213.4033" y1="404.1225" x2="2223.1616" y2="340.7024" gradientTransform="matrix(1 0 0 -1 0 1202)">
			<stop  offset="0" style="stop-color:#FFFFFF"/>
			<stop  offset="0" style="stop-color:#FFFFFF"/>
			<stop  offset="0.23" style="stop-color:#E57252"/>
			<stop  offset="0.46" style="stop-color:#DE3B20"/>
			<stop  offset="0.99" style="stop-color:#A60003"/>
			<stop  offset="1" style="stop-color:#A60003"/>
		</linearGradient>
		
			<polygon id="polygon3319" style="fill-rule:evenodd;clip-rule:evenodd;fill:url(#polygon3319_00000060730631301912374550000009304325541794706064_);" points="
			2216.1,879.8 2243.1,791.6 2183.8,804.2 		"/>
		
			<linearGradient id="polygon3334_00000100381015955258632110000012515169348405708204_" gradientUnits="userSpaceOnUse" x1="2280.4895" y1="463.3359" x2="2284.085" y2="398.6117" gradientTransform="matrix(1 0 0 -1 0 1202)">
			<stop  offset="0" style="stop-color:#FFFFFF"/>
			<stop  offset="0" style="stop-color:#FFFFFF"/>
			<stop  offset="0.23" style="stop-color:#E4714E"/>
			<stop  offset="0.56" style="stop-color:#BE1A0D"/>
			<stop  offset="0.99" style="stop-color:#A80D00"/>
			<stop  offset="1" style="stop-color:#A80D00"/>
		</linearGradient>
		
			<polygon id="polygon3334" style="fill-rule:evenodd;clip-rule:evenodd;fill:url(#polygon3334_00000100381015955258632110000012515169348405708204_);" points="
			2331.9,819.9 2307.2,722.8 2236.3,789.3 		"/>
		
			<linearGradient id="polygon3349_00000098925205614884778520000008668294937386436252_" gradientUnits="userSpaceOnUse" x1="2340.0354" y1="523.1567" x2="2350.7996" y2="476.7695" gradientTransform="matrix(1 0 0 -1 0 1202)">
			<stop  offset="0" style="stop-color:#FFFFFF"/>
			<stop  offset="0" style="stop-color:#FFFFFF"/>
			<stop  offset="0.18" style="stop-color:#E46342"/>
			<stop  offset="0.4" style="stop-color:#C82410"/>
			<stop  offset="0.99" style="stop-color:#A80D00"/>
			<stop  offset="1" style="stop-color:#A80D00"/>
		</linearGradient>
		
			<polygon id="polygon3349" style="fill-rule:evenodd;clip-rule:evenodd;fill:url(#polygon3349_00000098925205614884778520000008668294937386436252_);" points="
			2394.1,724.2 2327.1,669.5 2308.3,729.8 		"/>
		
			<linearGradient id="polygon3362_00000088854524706983614100000012689152752061482918_" gradientUnits="userSpaceOnUse" x1="2307.2085" y1="539.448" x2="2353.5925" y2="562.64" gradientTransform="matrix(1 0 0 -1 0 1202)">
			<stop  offset="0" style="stop-color:#FFFFFF"/>
			<stop  offset="0" style="stop-color:#FFFFFF"/>
			<stop  offset="0.54" style="stop-color:#C81F11"/>
			<stop  offset="0.99" style="stop-color:#BF0905"/>
			<stop  offset="1" style="stop-color:#BF0905"/>
		</linearGradient>
		
			<polygon id="polygon3362" style="fill-rule:evenodd;clip-rule:evenodd;fill:url(#polygon3362_00000088854524706983614100000012689152752061482918_);" points="
			2362.8,649.9 2323.3,671.8 2298.4,649.7 		"/>
		
			<linearGradient id="polygon3375_00000062893266026870980340000017237016389554314174_" gradientUnits="userSpaceOnUse" x1="2172.7051" y1="420.2852" x2="2176.5227" y2="382.0631" gradientTransform="matrix(1 0 0 -1 0 1202)">
			<stop  offset="0" style="stop-color:#FFFFFF"/>
			<stop  offset="0" style="stop-color:#FFFFFF"/>
			<stop  offset="0.31" style="stop-color:#DE4024"/>
			<stop  offset="0.99" style="stop-color:#BF190B"/>
			<stop  offset="1" style="stop-color:#BF190B"/>
		</linearGradient>
		
			<polygon id="polygon3375" style="fill-rule:evenodd;clip-rule:evenodd;fill:url(#polygon3375_00000062893266026870980340000017237016389554314174_);" points="
			2168.1,833.8 2184.6,803.7 2171.3,767.8 		"/>
		<path id="path3377" class="st23" d="M2170.4,766.7l13.4,38.1l58.4-13.1l66.7-61.9l18.8-59.8l-29.6-20.9l-50.4,18.8
			c-15.9,14.7-46.6,44-47.8,44.5S2179.6,749.4,2170.4,766.7z"/>
		
			<linearGradient id="path3400_00000165952549391401441990000014938659472352067479_" gradientUnits="userSpaceOnUse" x1="2146.4817" y1="371.7162" x2="2325.9426" y2="556.252" gradientTransform="matrix(1 0 0 -1 0 1202)">
			<stop  offset="0" style="stop-color:#BD0012"/>
			<stop  offset="0" style="stop-color:#BD0012"/>
			<stop  offset="7.000000e-02" style="stop-color:#FFFFFF"/>
			<stop  offset="0.17" style="stop-color:#FFFFFF"/>
			<stop  offset="0.27" style="stop-color:#C82F1C"/>
			<stop  offset="0.33" style="stop-color:#820C01"/>
			<stop  offset="0.46" style="stop-color:#A31601"/>
			<stop  offset="0.72" style="stop-color:#B31301"/>
			<stop  offset="0.99" style="stop-color:#E82609"/>
			<stop  offset="1" style="stop-color:#E82609"/>
		</linearGradient>
		
			<path id="path3400" style="fill-rule:evenodd;clip-rule:evenodd;fill:url(#path3400_00000165952549391401441990000014938659472352067479_);" d="
			M2217.6,698.2c34.4-34.1,78.7-54.3,95.7-37.1c17,17.1-1.1,58.9-35.4,93s-78.2,55.3-95.2,38.2S2183.1,732.3,2217.6,698.2z"/>
		
			<linearGradient id="path3413_00000161592559222514614020000007423346989976823441_" gradientUnits="userSpaceOnUse" x1="2283.9316" y1="353.1349" x2="2229.8765" y2="366.4761" gradientTransform="matrix(1 0 0 -1 0 1202)">
			<stop  offset="0" style="stop-color:#8C0C01"/>
			<stop  offset="0" style="stop-color:#8C0C01"/>
			<stop  offset="0.54" style="stop-color:#990C00"/>
			<stop  offset="0.99" style="stop-color:#A80D0E"/>
			<stop  offset="1" style="stop-color:#A80D0E"/>
		</linearGradient>
		
			<path id="path3413" style="fill-rule:evenodd;clip-rule:evenodd;fill:url(#path3413_00000161592559222514614020000007423346989976823441_);" d="
			M2216.1,879.7l26.7-88.5l88.7,28.5C2299.3,849.8,2263.8,875.2,2216.1,879.7z"/>
		
			<linearGradient id="path3424_00000157308231848736556850000005827494275056060814_" gradientUnits="userSpaceOnUse" x1="2376.8638" y1="418.0972" x2="2328.843" y2="461.1368" gradientTransform="matrix(1 0 0 -1 0 1202)">
			<stop  offset="0" style="stop-color:#7E110B"/>
			<stop  offset="0" style="stop-color:#7E110B"/>
			<stop  offset="0.99" style="stop-color:#9E0C00"/>
			<stop  offset="1" style="stop-color:#9E0C00"/>
		</linearGradient>
		
			<path id="path3424" style="fill-rule:evenodd;clip-rule:evenodd;fill:url(#path3424_00000157308231848736556850000005827494275056060814_);" d="
			M2309.1,729.5l22.8,90.2c26.8-28.2,50.9-58.5,62.7-96C2394.4,723.8,2309.1,729.5,2309.1,729.5z"/>
		
			<linearGradient id="path3435_00000008827819840954952880000008457986553557392772_" gradientUnits="userSpaceOnUse" x1="2394.417" y1="496.9669" x2="2370.4968" y2="522.5392" gradientTransform="matrix(1 0 0 -1 0 1202)">
			<stop  offset="0" style="stop-color:#79130D"/>
			<stop  offset="0" style="stop-color:#79130D"/>
			<stop  offset="0.99" style="stop-color:#9E120B"/>
			<stop  offset="1" style="stop-color:#9E120B"/>
		</linearGradient>
		
			<path id="path3435" style="fill-rule:evenodd;clip-rule:evenodd;fill:url(#path3435_00000008827819840954952880000008457986553557392772_);" d="
			M2394.2,724.3c9.1-27.5,11.2-67-31.8-74.3l-35.3,19.5L2394.2,724.3z"/>
		<path id="path3437" class="st41" d="M2168.1,833.4c1.3,45.4,34,46.1,48,46.5l-32.2-75.3L2168.1,833.4z"/>
		
			<radialGradient id="path3448_00000127023254468386618160000006428066611319116934_" cx="2336.2295" cy="460.2123" r="58.8471" gradientTransform="matrix(1 0 0 -1 0 1202)" gradientUnits="userSpaceOnUse">
			<stop  offset="0" style="stop-color:#A80D00"/>
			<stop  offset="0" style="stop-color:#A80D00"/>
			<stop  offset="0.99" style="stop-color:#7E0E08"/>
			<stop  offset="1" style="stop-color:#7E0E08"/>
		</radialGradient>
		
			<path id="path3448" style="fill-rule:evenodd;clip-rule:evenodd;fill:url(#path3448_00000127023254468386618160000006428066611319116934_);" d="
			M2309.1,729.7c20.6,12.6,62.1,38.1,62.9,38.5c1.3,0.7,17.9-27.9,21.7-44.2C2393.8,724,2309.1,729.7,2309.1,729.7z"/>
		
			<radialGradient id="path3459_00000137853850201475660450000002236923188658037677_" cx="2254.7332" cy="382.6617" r="78.2294" gradientTransform="matrix(1 0 0 -1 0 1202)" gradientUnits="userSpaceOnUse">
			<stop  offset="0" style="stop-color:#A30C00"/>
			<stop  offset="0" style="stop-color:#A30C00"/>
			<stop  offset="0.99" style="stop-color:#800E08"/>
			<stop  offset="1" style="stop-color:#800E08"/>
		</radialGradient>
		
			<path id="path3459" style="fill-rule:evenodd;clip-rule:evenodd;fill:url(#path3459_00000137853850201475660450000002236923188658037677_);" d="
			M2242.8,791.2l35.7,68.9c21.1-11.4,37.7-25.4,52.8-40.4L2242.8,791.2z"/>
		
			<linearGradient id="path3472_00000039856820514832538400000000506528590897808041_" gradientUnits="userSpaceOnUse" x1="2199.2932" y1="322.3736" x2="2179.7998" y2="388.5083" gradientTransform="matrix(1 0 0 -1 0 1202)">
			<stop  offset="0" style="stop-color:#8B2114"/>
			<stop  offset="0" style="stop-color:#8B2114"/>
			<stop  offset="0.43" style="stop-color:#9E100A"/>
			<stop  offset="0.99" style="stop-color:#B3100C"/>
			<stop  offset="1" style="stop-color:#B3100C"/>
		</linearGradient>
		
			<path id="path3472" style="fill-rule:evenodd;clip-rule:evenodd;fill:url(#path3472_00000039856820514832538400000000506528590897808041_);" d="
			M2183.8,804.7l-5.1,60.3c9.5,13.1,22.6,14.2,36.5,13.1C2205.1,853.3,2185.2,803.7,2183.8,804.7z"/>
		
			<linearGradient id="path3485_00000145020775890814745600000015558965634668888245_" gradientUnits="userSpaceOnUse" x1="2348.8782" y1="541.5726" x2="2392.5808" y2="522.2815" gradientTransform="matrix(1 0 0 -1 0 1202)">
			<stop  offset="0" style="stop-color:#B31000"/>
			<stop  offset="0" style="stop-color:#B31000"/>
			<stop  offset="0.44" style="stop-color:#910F08"/>
			<stop  offset="0.99" style="stop-color:#791C12"/>
			<stop  offset="1" style="stop-color:#791C12"/>
		</linearGradient>
		
			<path id="path3485" style="fill-rule:evenodd;clip-rule:evenodd;fill:url(#path3485_00000145020775890814745600000015558965634668888245_);" d="
			M2326.9,669.6l70.9,9.9c-3.8-16-15.4-26.4-35.2-29.6L2326.9,669.6z"/>
	</g>
	<g id="Dart">
		<path class="st46" d="M2518.4,1125.6l-59.8-59.8c-7.1-7.3-11.5-17.6-11.5-27.6c0-4.7,2.6-11.9,4.6-16.1l55.2-115.1L2518.4,1125.6z
			"/>
		<path class="st47" d="M2723.2,918.4l-59.8-59.8c-5.2-5.2-16.1-11.5-25.3-11.5c-7.9,0-15.7,1.6-20.7,4.6l-110.5,55.2L2723.2,918.4z
			"/>
		<polygon class="st47" points="2589.7,1196.9 2734.8,1196.9 2734.8,1134.8 2626.6,1100.2 2527.6,1134.8 		"/>
		<path class="st48" d="M2506.9,1093.4c0,18.5,2.3,23,11.5,32.2l9.2,9.2h207.2l-101.3-115.1l-126.6-112.8L2506.9,1093.4
			L2506.9,1093.4z"/>
		<path class="st46" d="M2691,906.9h-184.2l227.9,227.9h62.2V992l-73.7-73.7C2712.9,908,2703.7,906.9,2691,906.9z"/>
		<path class="st49" d="M2520.7,1127.9c-9.2-9.3-11.5-18.4-11.5-34.5V909.2l-2.3-2.3v186.5C2506.9,1109.5,2506.9,1114,2520.7,1127.9
			l6.9,6.9l0,0L2520.7,1127.9z"/>
		<polygon class="st50" points="2794.6,989.8 2794.6,1132.5 2732.4,1132.5 2734.8,1134.8 2796.9,1134.8 2796.9,992.1 		"/>
		<path class="st49" d="M2723.2,918.4c-11.4-11.4-20.8-11.5-34.5-11.5h-181.9l2.3,2.3h179.6C2695.6,909.2,2712.9,908,2723.2,918.4
			L2723.2,918.4z"/>
		
			<radialGradient id="SVGID_00000056397794052700488020000008468996309686733197_" cx="2622.05" cy="2092.4673" r="174.925" gradientTransform="matrix(1 0 0 1 0 -1070.4672)" gradientUnits="userSpaceOnUse">
			<stop  offset="0" style="stop-color:#FFFFFF;stop-opacity:0.1"/>
			<stop  offset="1" style="stop-color:#FFFFFF;stop-opacity:0"/>
		</radialGradient>
		<path style="opacity:0.2;fill:url(#SVGID_00000056397794052700488020000008468996309686733197_);enable-background:new    ;" d="
			M2794.6,989.8l-71.4-71.4l-59.8-59.8c-5.2-5.2-16.1-11.5-25.3-11.5c-7.9,0-15.7,1.6-20.7,4.6l-110.5,55.2l-55.2,115.1
			c-2,4.2-4.6,11.5-4.6,16.1c0,10.1,4.4,20.3,11.5,27.6l55.2,54.8c1.3,1.6,2.9,3.3,4.7,5.1l2.3,2.3l6.9,6.9l59.8,59.8l2.3,2.3h142.7
			h2.3v-62.2h62.2v-0.2V992.1L2794.6,989.8z"/>
	</g>
	<g id="Swift">
		<g>
			<path class="st52" d="M1119.2,917.4c0-3.3-0.1-6.5-0.1-9.8c-0.2-7.1-0.6-14.3-1.9-21.3c-1.3-7.1-3.4-13.8-6.7-20.2
				c-3.2-6.4-7.5-12.2-12.5-17.2c-5-5.1-10.9-9.3-17.2-12.5c-6.5-3.3-13.1-5.4-20.2-6.7c-7-1.3-14.2-1.7-21.3-1.9
				c-3.3-0.1-6.5-0.1-9.8-0.1c-3.9,0-7.7,0-11.6,0h-85.8h-35.6c-3.9,0-7.7,0-11.6,0c-3.3,0-6.5,0.1-9.8,0.1c-1.8,0-3.6,0.1-5.3,0.2
				c-5.3,0.3-10.7,0.7-16,1.7c-5.3,1-10.4,2.4-15.3,4.4c-1.6,0.7-3.3,1.4-4.9,2.3c-4.8,2.4-9.2,5.4-13.3,8.9
				c-1.4,1.2-2.7,2.4-3.9,3.6c-5.1,5.1-9.3,10.9-12.5,17.2c-3.3,6.5-5.4,13.1-6.7,20.2c-1.3,7-1.7,14.2-1.9,21.3
				c-0.1,3.3-0.1,6.5-0.1,9.8c0,3.9,0,7.7,0,11.6v52.9v68.5c0,3.9,0,7.7,0,11.6c0,3.3,0.1,6.5,0.1,9.8c0.2,7.1,0.6,14.3,1.9,21.3
				c1.3,7.1,3.4,13.8,6.7,20.3c3.2,6.4,7.5,12.2,12.5,17.2c5,5.1,10.9,9.3,17.2,12.5c6.5,3.3,13.1,5.4,20.2,6.7
				c7,1.3,14.2,1.7,21.3,1.9c3.3,0.1,6.5,0.1,9.8,0.1c3.9,0,7.7,0,11.6,0h121.4c3.9,0,7.7,0,11.6,0c3.3,0,6.5-0.1,9.8-0.1
				c7.1-0.2,14.3-0.6,21.3-1.9c7.1-1.3,13.8-3.4,20.2-6.7c6.4-3.2,12.2-7.5,17.2-12.5c5.1-5,9.3-10.9,12.5-17.2
				c3.3-6.5,5.4-13.1,6.7-20.3c1.3-7,1.7-14.2,1.9-21.3c0.1-3.3,0.1-6.5,0.1-9.8c0-3.9,0-7.7,0-11.6V929
				C1119.2,925.1,1119.2,921.3,1119.2,917.4z"/>
			<path class="st5" d="M1051.9,1027.8L1051.9,1027.8c0.3-1.2,0.7-2.5,1-3.7c13.5-53.6-19.4-117-75-150.4c24.4,33,35.1,73,25.6,108
				c-0.9,3.1-1.9,6.1-3,9c-1.2-0.8-2.8-1.7-4.9-2.9c0,0-55.3-34.1-115.2-94.5c-1.6-1.6,31.9,47.9,70,88.1
				c-17.9-10.1-67.9-46.4-99.5-75.3c3.9,6.5,8.5,12.7,13.6,18.7c26.4,33.5,60.8,74.8,102.1,106.5c-29,17.7-69.9,19.1-110.7,0
				c-10.1-4.7-19.6-10.4-28.3-16.9c17.3,27.6,43.9,51.4,76.2,65.3c38.6,16.6,77,15.5,105.5,0.3l0,0c0.1-0.1,0.3-0.2,0.4-0.3
				c1.2-0.6,2.3-1.3,3.5-2c13.7-7.1,40.9-14.4,55.4,14C1072.2,1098.8,1079.7,1062.1,1051.9,1027.8z"/>
		</g>
	</g>
	<g id="R">
		
			<linearGradient id="SVGID_00000181056924732320799070000006237796876998168240_" gradientUnits="userSpaceOnUse" x1="4.2116" y1="1200.306" x2="4.8222" y2="1199.6954" gradientTransform="matrix(721.094 0 0 -482.937 -719.188 580011.375)">
			<stop  offset="0" style="stop-color:#CBCED0"/>
			<stop  offset="1" style="stop-color:#84838B"/>
		</linearGradient>
		<path style="fill-rule:evenodd;clip-rule:evenodd;fill:url(#SVGID_00000181056924732320799070000006237796876998168240_);" d="
			M2537.9,634c-121.6,0-220.1-66-220.1-147.4s98.6-147.4,220.1-147.4c121.6,0,220.1,66,220.1,147.4
			C2758.1,568,2659.5,634,2537.9,634z M2571.6,396.8c-92.4,0-167.3,45.1-167.3,100.8s74.9,100.8,167.3,100.8
			c92.4,0,160.6-30.9,160.6-100.8C2732.2,427.6,2664,396.8,2571.6,396.8z"/>
		
			<linearGradient id="SVGID_00000170269198707000719870000003043315682138939828_" gradientUnits="userSpaceOnUse" x1="6.4895" y1="1200.2804" x2="7.1001" y2="1199.6698" gradientTransform="matrix(398 0 0 -406.124 -99 487908.875)">
			<stop  offset="0" style="stop-color:#276DC3"/>
			<stop  offset="1" style="stop-color:#165CAA"/>
		</linearGradient>
		<path style="fill-rule:evenodd;clip-rule:evenodd;fill:url(#SVGID_00000170269198707000719870000003043315682138939828_);" d="
			M2653,567.5c0,0,13.3,4,21.1,7.9c2.7,1.4,7.3,4.1,10.7,7.6c3.3,3.5,4.9,7,4.9,7l52.5,88.5h-84.9l-39.7-74.5c0,0-8.1-14-13.1-18
			c-4.2-3.4-6-4.6-10.1-4.6c-2.9,0-20.2,0-20.2,0v97.1h-75.1V430.6h150.8c0,0,68.7,1.2,68.7,66.6S2653,567.5,2653,567.5z
			 M2620.4,484.4h-45.5v42.2h45.5c0,0,21.1-0.1,21.1-21.4C2641.4,483.4,2620.4,484.4,2620.4,484.4z"/>
	</g>
	<g>
		<path class="st55" d="M1386.8,1178.2c-4.7,0-9.6-1.2-13.7-3.7l-43.7-25.8c-6.6-3.7-3.4-4.9-1.2-5.6c8.6-2.9,10.6-3.7,19.6-9.1
			c1-0.5,2.2-0.2,3.2,0.2l33.6,19.9c1.2,0.7,2.9,0.7,4.2,0l130.8-75.3c1.2-0.7,2-2.2,2-3.4V924.5c0-1.5-0.7-2.9-2-3.7l-130.5-75.3
			c-1.2-0.7-2.7-0.7-3.9,0l-130.5,75.3c-1.2,0.7-2,2.2-2,3.7v150.9c0,1.5,0.7,2.7,2,3.4l35.8,20.6c19.4,9.8,31.4-1.7,31.4-13.2
			V937.3c0-2.2,1.7-3.7,3.7-3.7h16.4c2,0,3.7,1.7,3.7,3.7v148.9c0,26-14.2,40.7-38.8,40.7c-7.6,0-13.5,0-30.2-8.1l-34.3-19.9
			c-8.6-4.9-13.7-14-13.7-23.8V924.3c0-9.8,5.2-18.9,13.7-23.8l130.8-75.6c8.3-4.7,19.4-4.7,27.5,0l130.8,75.6
			c8.3,4.9,13.7,14,13.7,23.8v150.9c0,9.8-5.2,18.9-13.7,23.8l-130.8,75.6C1396.4,1177,1391.5,1178.2,1386.8,1178.2"/>
		<path class="st55" d="M1427.1,1074.5c-57.2,0-69.2-26.3-69.2-48.3c0-2.2,1.7-3.7,3.7-3.7h16.9c2,0,3.4,1.5,3.7,3.2
			c2.5,17.2,10.1,25.8,44.7,25.8c27.5,0,39.3-6.1,39.3-20.9c0-8.3-3.4-14.7-46.1-18.9c-35.8-3.4-57.9-11.5-57.9-40
			c0-26.3,22.3-42,59.6-42c42,0,62.6,14.5,65.3,45.6c0,1-0.2,2.2-1,2.9s-1.7,1.2-2.7,1.2h-16.9c-1.7,0-3.2-1.2-3.7-2.9
			c-4.2-18.2-14-23.8-40.7-23.8c-30.2,0-33.6,10.6-33.6,18.4c0,9.6,4.2,12.3,44.7,17.7c40.2,5.4,59.1,12.8,59.1,41
			C1492.1,1058.3,1468.3,1074.5,1427.1,1074.5"/>
	</g>
	<g id="Layer_x0020_3">
		<path class="st56" d="M1297.6,238.5c2-16.8,1.4-19.2,13.9-16.5l3.2,0.3c9.6,0.4,22.2-1.5,29.5-5c15.9-7.4,25.3-19.7,9.6-16.4
			c-35.7,7.4-38.2-4.7-38.2-4.7c37.7-56,53.5-127,39.9-144.4c-37.1-47.4-101.4-25-102.4-24.4l-0.3,0.1c-7.1-1.5-15-2.3-23.8-2.5
			c-16.2-0.3-28.4,4.2-37.7,11.3c0,0-114.6-47.2-109.3,59.4c1.1,22.7,32.5,171.6,69.9,126.6c13.7-16.4,26.9-30.4,26.9-30.4
			c6.6,4.4,14.4,6.6,22.7,5.8l0.6-0.5c-0.2,2-0.1,4,0.3,6.4c-9.6,10.8-6.8,12.7-26.1,16.6c-19.5,4-8,11.2-0.6,13
			c9.1,2.3,30,5.5,44.2-14.4l-0.6,2.3c3.8,3,3.5,21.7,4.1,35.1c0.5,13.4,1.4,25.9,4.2,33.2c2.7,7.4,5.9,26.3,31.3,20.9
			C1280,305.8,1296.1,299.3,1297.6,238.5"/>
		<path class="st57" d="M1353.8,200.9c-35.7,7.4-38.2-4.7-38.2-4.7c37.7-56,53.5-127,39.9-144.4c-37.1-47.4-101.4-25-102.4-24.4
			l-0.3,0.1c-7.1-1.5-15-2.3-23.8-2.5c-16.2-0.3-28.4,4.2-37.7,11.3c0,0-114.6-47.2-109.3,59.4c1.1,22.7,32.5,171.6,69.9,126.6
			c13.7-16.4,26.9-30.4,26.9-30.4c6.6,4.4,14.4,6.6,22.7,5.8l0.6-0.5c-0.2,2-0.1,4,0.3,6.4c-9.6,10.8-6.8,12.7-26.1,16.6
			c-19.5,4-8,11.2-0.6,13c9.1,2.3,30,5.5,44.2-14.4l-0.6,2.3c3.8,3,6.4,19.7,6,34.8s-0.7,25.5,2.2,33.6c3,8.1,5.9,26.3,31.3,20.9
			c21.2-4.5,32.1-16.3,33.7-35.9c1.1-13.9,3.5-11.9,3.7-24.3l2-5.9c2.3-18.9,0.4-25,13.4-22.2l3.2,0.3c9.6,0.4,22.2-1.5,29.5-5
			C1360.1,210,1369.5,197.7,1353.8,200.9L1353.8,200.9z"/>
		<path class="st58" d="M1221.4,211.7c-1,35.2,0.2,70.6,3.7,79.2c3.4,8.6,10.8,25.3,36.1,19.9c21.2-4.5,28.9-13.3,32.2-32.7
			c2.5-14.3,7.2-53.9,7.8-62"/>
		<path class="st58" d="M1191,35.5c0,0-114.7-46.9-109.4,59.7c1.1,22.7,32.5,171.6,69.9,126.6c13.7-16.5,26-29.4,26-29.4"/>
		<path class="st58" d="M1253,26.9c-4,1.2,63.8-24.8,102.3,24.4c13.6,17.4-2.2,88.4-39.9,144.4"/>
		<path class="st59" d="M1315.4,195.7c0,0,2.5,12.1,38.2,4.7c15.7-3.2,6.2,9.1-9.6,16.4c-13,6-42.2,7.6-42.7-0.8
			C1300,194.6,1316.6,201.1,1315.4,195.7c-1.1-4.9-8.5-9.6-13.4-21.5c-4.3-10.4-58.8-90.1,15.1-78.2c2.7-0.6-19.3-70.3-88.4-71.4
			c-69.2-1.1-66.9,85-66.9,85"/>
		<path class="st58" d="M1202,203.1c-9.6,10.8-6.8,12.7-26.1,16.6c-19.5,4-8,11.2-0.6,13c9.1,2.3,30,5.5,44.2-14.4
			c4.3-6,0-15.7-6-18.1C1210.8,199.1,1207,197.6,1202,203.1L1202,203.1z"/>
		<path class="st58" d="M1201.4,202.9c-1-6.3,2.1-13.9,5.4-22.7c4.9-13.2,16.3-26.5,7.2-68.4c-6.8-31.3-52.1-6.5-52.1-2.3
			s2.1,21.5-0.8,41.6c-3.7,26.2,16.7,48.4,40.1,46.1"/>
		<path class="st60" d="M1190.6,108.9c-0.2,1.4,2.7,5.3,6.4,5.8c3.7,0.5,6.9-2.5,7.1-3.9s-2.7-3-6.4-3.6
			C1194,106.7,1190.8,107.5,1190.6,108.9L1190.6,108.9z"/>
		<path class="st61" d="M1303.8,106c0.2,1.4-2.7,5.3-6.4,5.8c-3.7,0.5-6.9-2.5-7.1-3.9s2.7-3,6.4-3.6
			C1300.4,103.8,1303.6,104.5,1303.8,106L1303.8,106z"/>
		<path class="st58" d="M1317.1,95.9c0.6,11.4-2.4,19.1-2.8,31.2c-0.6,17.6,8.4,37.7-5.1,57.8"/>
		<path class="st62" d="M1068.1,51.1"/>
	</g>
	<g>
		<path class="st5" d="M2757.6,242.7v-58.5h-18.5v6.2c0,24.6-27.7,21.6-30.8,6.2c-3.1-15.4-15.4-27.7-18.5-27.7
			c46.2-24.6,18.5-73.9-18.5-73.9h-144.8v33.9h30.8v80.1h-46.2v33.9h123.2v-33.9h-27.7v-24.6h30.8c33.9,0,15.4,58.5,43.1,58.5
			H2757.6z M2646.7,153.4h-40.1v-24.6h40.1C2671.3,128.8,2671.3,153.4,2646.7,153.4z"/>
		<polygon class="st5" points="2774.5,182.7 2789.9,173.4 2774.5,164.2 		"/>
		<polygon class="st5" points="2770,210.1 2786.9,204.1 2773.6,192 		"/>
		<polygon class="st5" points="2760.2,236.2 2778,233.6 2767.3,219.1 		"/>
		<polygon class="st5" points="2745.5,259.8 2763.4,260.7 2755.8,244.5 		"/>
		<polygon class="st5" points="2726.5,280.2 2743.9,284.5 2739.5,267.1 		"/>
		<polygon class="st5" points="2703.8,296.4 2720.1,304.1 2719.2,286.1 		"/>
		<polygon class="st5" points="2692.9,318.6 2695.6,300.8 2678.5,307.9 		"/>
		<polygon class="st5" points="2663.5,327.5 2669.5,310.6 2651.4,314.2 		"/>
		<polygon class="st5" points="2632.8,330.6 2642,315.1 2623.6,315.1 		"/>
		<polygon class="st5" points="2602.1,327.5 2614.2,314.2 2596.1,310.6 		"/>
		<polygon class="st5" points="2572.7,318.6 2587.1,307.9 2570,300.8 		"/>
		<polygon class="st5" points="2545.5,304.1 2561.7,296.4 2546.4,286.1 		"/>
		<polygon class="st5" points="2521.7,284.5 2539.1,280.2 2526.1,267.1 		"/>
		<polygon class="st5" points="2502.2,260.7 2520.1,259.8 2509.8,244.5 		"/>
		<polygon class="st5" points="2498.3,219.1 2487.6,233.6 2505.4,236.2 		"/>
		<polygon class="st5" points="2492,192 2478.7,204.1 2495.6,210.1 		"/>
		<polygon class="st5" points="2491.1,164.2 2475.7,173.4 2491.1,182.7 		"/>
		<polygon class="st5" points="2495.6,136.7 2478.7,142.8 2492,154.8 		"/>
		<polygon class="st5" points="2505.4,110.7 2487.6,113.3 2498.3,127.7 		"/>
		<polygon class="st5" points="2520.1,87 2502.2,86.1 2509.8,102.4 		"/>
		<polygon class="st5" points="2539.1,66.7 2521.7,62.3 2526.1,79.7 		"/>
		<polygon class="st5" points="2561.7,50.5 2545.5,42.8 2546.4,60.7 		"/>
		<polygon class="st5" points="2572.7,28.3 2570,46 2587.1,39 		"/>
		<polygon class="st5" points="2602.1,19.3 2596.1,36.2 2614.2,32.6 		"/>
		<polygon class="st5" points="2632.8,16.3 2623.6,31.7 2642,31.7 		"/>
		<polygon class="st5" points="2663.5,19.3 2651.4,32.6 2669.5,36.2 		"/>
		<polygon class="st5" points="2692.9,28.3 2678.5,39 2695.6,46 		"/>
		<polygon class="st5" points="2720.1,42.8 2703.8,50.5 2719.2,60.7 		"/>
		<polygon class="st5" points="2743.9,62.3 2726.5,66.7 2739.5,79.7 		"/>
		<polygon class="st5" points="2763.4,86.1 2745.5,87 2755.8,102.4 		"/>
		<polygon class="st5" points="2767.3,127.7 2778,113.3 2760.2,110.7 		"/>
		<polygon class="st5" points="2773.6,154.8 2786.9,142.8 2770,136.7 		"/>
		<polygon class="st5" points="2632.8,65.6 2654.4,44 2611.2,44 		"/>
		<polygon class="st5" points="2735.4,140.1 2762.5,153.9 2749.2,112.9 		"/>
		<polygon class="st5" points="2691.4,290.8 2726.3,265.4 2696.2,260.7 		"/>
		<polygon class="st5" points="2569.4,260.7 2539.3,265.4 2574.2,290.8 		"/>
		<polygon class="st5" points="2503.1,153.9 2530.2,140.1 2516.4,112.9 		"/>
	</g>
</g>
</svg>
