<svg width="288" height="120" viewBox="0 0 288 120" fill="none" xmlns="http://www.w3.org/2000/svg">
	<path d="M7.92191 0H13.3125V5.34375H18.2813V0H23.6719V16.1719H18.2813V10.7813H13.3594V16.1719H7.92191M30.7969 5.39063H26.0391V0H40.9688V5.39063H36.1875V16.1719H30.7969M43.336 0H48.9844L52.4532 5.69531L55.9219 0H61.5703V16.1719H56.1797V8.15625L52.4063 13.9688L48.6328 8.15625V16.1719H43.336M64.2422 0H69.6328V10.8281H77.2735V16.1719H64.2422" fill="#FDFDFD"/>
	<path d="M7.73438 110.391L0 23.5781H85.0312L77.2969 110.344L42.4453 120" fill="#E44D26"/>
	<path d="M42.5156 112.617V30.7031H77.2734L70.6406 104.766" fill="#F16529"/>
	<path d="M15.7969 41.3203H42.5156V51.9609H27.4688L28.4531 62.8594H42.5156V73.4766H18.7031M19.1719 78.8203H29.8594L30.6094 87.3281L42.5156 90.5156V101.625L20.6719 95.5313" fill="#EBEBEB"/>
	<path d="M69.1406 41.3203H42.4688V51.9609H68.1563M67.1953 62.8594H42.4688V73.5H55.5937L54.3516 87.3281L42.4688 90.5156V101.578L64.2656 95.5313" fill="white"/>
	<path d="M185.944 23.5828L178.208 110.348L143.435 120L108.759 110.362L101.031 23.5828H185.944Z" fill="#264DE4"/>
	<path d="M171.585 104.823L178.196 30.6783H143.487V112.623L171.585 104.823Z" fill="#2965F1"/>
	<path d="M118.746 62.8634L119.699 73.5063H143.487V62.8634H118.746Z" fill="#EBEBEB"/>
	<path d="M143.487 41.3215H143.451H116.832L117.798 51.9647H143.487V41.3215Z" fill="#EBEBEB"/>
	<path d="M143.487 101.578V90.5046L143.441 90.517L131.602 87.3164L130.845 78.828H125.092H120.174L121.663 95.5392L143.438 101.591L143.487 101.578Z" fill="#EBEBEB"/>
	<path d="M121.015 0H133.89V5.39062H126.399V10.7812H133.89V16.1719H121.015V0Z" fill="#FDFDFD"/>
	<path d="M136.465 0H149.34V4.6875H141.849V5.625H149.34V16.4062H136.465V11.4844H143.956V10.5469H136.465V0Z" fill="#FDFDFD"/>
	<path d="M151.915 0H164.79V4.6875H157.299V5.625H164.79V16.4062H151.915V11.4844H159.405V10.5469H151.915V0Z" fill="#FDFDFD"/>
	<path d="M156.541 73.5063L155.307 87.3096L143.451 90.5135V101.586L165.243 95.5392L165.403 93.7411L167.901 65.7213L168.16 62.8634L170.079 41.3215H143.451V51.9647H158.43L157.462 62.8634H143.451V73.5063H156.541Z" fill="white"/>
	<path d="M202.23 23.4492L202.243 24.5216C202.25 25.1114 203.959 44.6397 206.04 67.9176L209.824 110.241L226.831 115.003C236.185 117.622 244.031 119.778 244.267 119.794C244.503 119.811 252.453 117.677 261.933 115.051C277.133 110.843 279.185 110.209 279.294 109.688C279.446 108.962 286.889 24.9911 286.882 24.0927L286.876 23.4492H244.553H202.23Z" fill="white"/>
	<path d="M226.966 115.288L209.808 110.492L209.583 109.223C209.384 108.094 201.943 24.9901 201.943 23.892C201.943 23.4946 206.288 23.4495 244.553 23.4495C284.944 23.4495 287.162 23.4755 287.159 23.9499C287.146 25.9989 279.444 110.204 279.255 110.371C279.016 110.583 245.806 119.835 244.696 119.999C244.381 120.046 236.403 117.926 226.966 115.288ZM255.372 98.3412C261.139 96.7507 265.941 95.3673 266.043 95.2671C266.144 95.1668 266.819 88.3288 267.542 80.0714C268.265 71.8141 268.93 64.5111 269.019 63.8427L269.181 62.6273H256.724H244.267V67.9177V73.2082H250.993H257.718L257.585 73.8516C257.511 74.2055 257.225 77.2466 256.949 80.6097C256.657 84.1732 256.31 86.8617 256.118 87.0536C255.937 87.2347 253.196 88.0738 250.028 88.9183L244.267 90.4538V95.8435C244.267 99.5222 244.365 101.233 244.577 101.233C244.747 101.233 249.605 99.9318 255.372 98.3412ZM269.017 55.9785C268.828 54.5773 267.145 35.7827 267.145 35.0741C267.145 34.6437 266.155 34.6023 255.849 34.6023H244.553V40.1345V45.6666L249.629 45.8623C252.421 45.9699 255.359 46.1336 256.158 46.2262L257.611 46.3945L257.964 50.7218C258.158 53.1018 258.389 55.5317 258.478 56.1215L258.639 57.1939H263.91H269.181L269.017 55.9785Z" fill="#EAEBEC"/>
	<path d="M226.831 115.003L209.824 110.241L206.04 67.9177C203.959 44.6398 202.25 25.1117 202.243 24.5219L202.229 23.4495H244.553H286.876L286.882 24.0929C286.89 24.9913 279.446 108.962 279.294 109.688C279.185 110.209 277.133 110.843 261.933 115.052C252.453 117.677 244.503 119.811 244.267 119.795C244.031 119.778 236.185 117.622 226.831 115.003H226.831ZM255.385 98.5435C261.264 96.909 266.158 95.4367 266.259 95.2717C266.361 95.1067 267.064 87.9194 267.82 79.3C268.577 70.6805 269.257 63.403 269.333 63.1278C269.463 62.6549 268.463 62.6273 251.207 62.6273H232.943L233.721 54.4057C234.148 49.8838 234.509 46.1724 234.521 46.158C234.534 46.1437 237.214 46.0582 240.478 45.968C245.829 45.8201 256.865 46.2471 257.234 46.6162C257.372 46.7542 258.279 55.6565 258.279 56.8718C258.279 57.471 258.36 57.4799 263.821 57.4799H269.362L269.231 56.2645C269.16 55.596 268.69 50.4164 268.188 44.7542L267.276 34.4593L245.905 34.386C228.904 34.3277 224.535 34.3861 224.533 34.672C224.531 34.8696 224.407 36.1251 224.256 37.462C223.89 40.6971 221.103 71.9547 221.103 72.818V73.4941H239.288H257.472L257.31 74.5665C257.221 75.1563 256.938 78.1483 256.682 81.2153C256.425 84.2823 256.133 86.871 256.032 86.9678C255.766 87.2236 245.068 90.0814 244.401 90.075C244.091 90.072 241.329 89.3827 238.262 88.5432L232.685 87.0167L232.481 84.6165C232.368 83.2963 232.197 81.4119 232.1 80.4289L231.925 78.6416H226.514H221.103L221.115 79.714C221.138 81.7195 222.438 95.2281 222.627 95.417C222.846 95.6354 243.627 101.477 244.267 101.5C244.503 101.508 249.506 100.178 255.385 98.5435H255.385Z" fill="#F0BE25"/>
	<path d="M226.831 115.003L209.824 110.241L206.04 67.9177C203.959 44.6398 202.25 25.1117 202.243 24.5219L202.229 23.4495H244.553H286.876L286.882 24.0929C286.89 24.9913 279.446 108.962 279.294 109.688C279.185 110.209 277.133 110.843 261.933 115.052C252.453 117.677 244.503 119.811 244.267 119.795C244.031 119.778 236.185 117.622 226.831 115.003H226.831ZM258.547 108.633C266.028 106.568 272.289 104.735 272.461 104.558C272.729 104.282 279.19 33.4683 279.164 31.0992L279.155 30.3128H261.854H244.553V32.3145V34.3163H234.544C226.729 34.3163 224.535 34.3947 224.533 34.6738C224.531 34.8704 224.407 36.1251 224.256 37.462C223.89 40.6971 221.103 71.9547 221.103 72.818V73.4941H232.828H244.553V81.7873C244.553 88.234 244.473 90.0792 244.195 90.075C243.999 90.072 241.329 89.3827 238.262 88.5432L232.685 87.0167L232.481 84.6165C232.368 83.2963 232.197 81.4119 232.1 80.4289L231.925 78.6416H226.514H221.103L221.115 79.714C221.15 82.7813 222.477 95.302 222.788 95.4943C222.977 95.6112 227.951 97.0406 233.842 98.6707L244.553 101.635V107.01C244.553 109.967 244.641 112.386 244.749 112.386C244.856 112.386 251.066 110.697 258.547 108.633ZM233.69 54.4825C234.102 50.0029 234.494 46.2871 234.562 46.2251C234.631 46.1631 236.907 46.051 239.62 45.976L244.553 45.8395V54.2334V62.6273H238.748H232.943L233.69 54.4825Z" fill="#E4A126"/>
	<path d="M229.111 13.2976V10.5809H232.971H236.832V5.29044V0H239.548H242.265V8.00714V16.0143H235.688H229.111V13.2976Z" fill="#FDFDFD"/>
	<path d="M245 0H257.875V4.6875H250.384V5.625H257.875V16.0143H251.437H245V11H252.491V10.0625H245V0Z" fill="#FDFDFD"/>
</svg>
