<svg width="400" height="400" viewBox="0 0 400 400" fill="none" xmlns="http://www.w3.org/2000/svg">
	<g clip-path="url(#clip0_1073_51)">
		<rect width="400" height="400" fill="#030303"/>
		<path d="M25 255V375H165.5L147 350H50V255H25Z" fill="#333333"/>
		<path d="M365 25V66H340V50H154V25H365Z" fill="#333333"/>
		<path d="M0.482422 255V6.99999H60.4824L73.9824 52.5C81.6491 32.5 92.1491 18.5 105.482 10.5C118.816 2.49999 134.982 -1.00002 153.982 -3.01003e-05V76C149.982 75.3333 146.482 75 143.482 75C140.482 74.6667 137.149 74.5 133.482 74.5C115.149 74.5 100.982 78.8333 90.9824 87.5C81.3158 96.1667 76.4824 110.333 76.4824 130V255H0.482422Z" fill="#FDFDFD"/>
		<path d="M239.574 406C218.241 406 199.241 400.667 182.574 390C166.241 379.333 153.408 364.167 144.074 344.5C134.741 324.5 130.074 301 130.074 274C130.074 247 134.741 224 144.074 205C153.408 185.667 166.241 170.833 182.574 160.5C199.241 150.167 218.241 145 239.574 145C253.241 145 267.241 148.5 281.574 155.5C295.908 162.167 307.074 172.333 315.074 186V66H391.074V303C391.074 315.333 391.574 330 392.574 347C393.908 364 396.241 381.667 399.574 400H327.074L317.074 366.5C306.741 380.833 294.574 391 280.574 397C266.908 403 253.241 406 239.574 406ZM264.074 347C278.741 347 291.408 341.5 302.074 330.5C313.074 319.5 318.574 301.167 318.574 275.5C318.574 250.167 313.074 232 302.074 221C291.408 209.667 278.741 204 264.074 204C249.074 204 236.074 210 225.074 222C214.408 234 209.074 251.333 209.074 274C209.074 297 214.408 315 225.074 328C236.074 340.667 249.074 347 264.074 347Z" fill="#4F4F4F"/>
	</g>
	<defs>
		<clipPath id="clip0_1073_51">
			<rect width="400" height="400" fill="white"/>
		</clipPath>
	</defs>
</svg>
